# Blender 3.5.1
# www.blender.org
o Cube.001
v -0.120664 -0.125664 -0.120664
v -0.125664 -0.120664 -0.120664
v -0.120664 -0.120664 -0.125664
v -0.123161 -0.124996 -0.120664
v -0.120664 -0.124996 -0.123161
v -0.123055 -0.124347 -0.123055
v -0.124996 -0.120664 -0.123161
v -0.124996 -0.123161 -0.120664
v -0.124347 -0.123055 -0.123055
v -0.120664 -0.123161 -0.124996
v -0.123161 -0.120664 -0.124996
v -0.123055 -0.123055 -0.124347
v -0.120664 -0.125664 0.120664
v -0.120664 -0.120664 0.125664
v -0.125664 -0.120664 0.120664
v -0.120664 -0.124996 0.123161
v -0.123161 -0.124996 0.120664
v -0.123055 -0.124347 0.123055
v -0.123161 -0.120664 0.124996
v -0.120664 -0.123161 0.124996
v -0.123055 -0.123055 0.124347
v -0.124996 -0.123161 0.120664
v -0.124996 -0.120664 0.123161
v -0.124347 -0.123055 0.123055
v -0.120664 0.125664 -0.120664
v -0.120664 0.120664 -0.125664
v -0.125664 0.120664 -0.120664
v -0.120664 0.124996 -0.123161
v -0.123161 0.124996 -0.120664
v -0.123055 0.124347 -0.123055
v -0.123161 0.120664 -0.124996
v -0.120664 0.123161 -0.124996
v -0.123055 0.123055 -0.124347
v -0.124996 0.123161 -0.120664
v -0.124996 0.120664 -0.123161
v -0.124347 0.123055 -0.123055
v -0.120664 0.125664 0.120664
v -0.125664 0.120664 0.120664
v -0.120664 0.120664 0.125664
v -0.123161 0.124996 0.120664
v -0.120664 0.124996 0.123161
v -0.123055 0.124347 0.123055
v -0.124996 0.120664 0.123161
v -0.124996 0.123161 0.120664
v -0.124347 0.123055 0.123055
v -0.120664 0.123161 0.124996
v -0.123161 0.120664 0.124996
v -0.123055 0.123055 0.124347
v 0.120664 -0.120664 -0.125664
v 0.125664 -0.120664 -0.120664
v 0.120664 -0.125664 -0.120664
v 0.123161 -0.120664 -0.124996
v 0.120664 -0.123161 -0.124996
v 0.123055 -0.123055 -0.124347
v 0.124996 -0.123161 -0.120664
v 0.124996 -0.120664 -0.123161
v 0.124347 -0.123055 -0.123055
v 0.120664 -0.124996 -0.123161
v 0.123161 -0.124996 -0.120664
v 0.123055 -0.124347 -0.123055
v 0.125664 -0.120664 0.120664
v 0.120664 -0.120664 0.125664
v 0.120664 -0.125664 0.120664
v 0.124996 -0.120664 0.123161
v 0.124996 -0.123161 0.120664
v 0.124347 -0.123055 0.123055
v 0.120664 -0.123161 0.124996
v 0.123161 -0.120664 0.124996
v 0.123055 -0.123055 0.124347
v 0.123161 -0.124996 0.120664
v 0.120664 -0.124996 0.123161
v 0.123055 -0.124347 0.123055
v 0.120664 0.120664 -0.125664
v 0.120664 0.125664 -0.120664
v 0.125664 0.120664 -0.120664
v 0.120664 0.123161 -0.124996
v 0.123161 0.120664 -0.124996
v 0.123055 0.123055 -0.124347
v 0.123161 0.124996 -0.120664
v 0.120664 0.124996 -0.123161
v 0.123055 0.124347 -0.123055
v 0.124996 0.120664 -0.123161
v 0.124996 0.123161 -0.120664
v 0.124347 0.123055 -0.123055
v 0.120664 0.125664 0.120664
v 0.120664 0.120664 0.125664
v 0.125664 0.120664 0.120664
v 0.120664 0.124996 0.123161
v 0.123161 0.124996 0.120664
v 0.123055 0.124347 0.123055
v 0.123161 0.120664 0.124996
v 0.120664 0.123161 0.124996
v 0.123055 0.123055 0.124347
v 0.124996 0.123161 0.120664
v 0.124996 0.120664 0.123161
v 0.124347 0.123055 0.123055
vn -0.0000 -0.0000 -1.0000
vn 1.0000 -0.0000 -0.0000
vn -1.0000 -0.0000 -0.0000
vn -0.0000 -0.0000 1.0000
vn -0.0000 1.0000 -0.0000
vn -0.1731 -0.9696 -0.1731
vn -0.4915 -0.8623 -0.1216
vn -0.4473 -0.7744 -0.4473
vn -0.1216 -0.8623 -0.4915
vn -0.8623 -0.4915 -0.1216
vn -0.7744 -0.4473 -0.4473
vn -0.9696 -0.1731 -0.1731
vn -0.8623 -0.1216 -0.4915
vn -0.4915 -0.1216 -0.8623
vn -0.4473 -0.4473 -0.7744
vn -0.1731 -0.1731 -0.9696
vn -0.1216 -0.4915 -0.8623
vn -0.1731 -0.9696 0.1731
vn -0.1216 -0.8623 0.4915
vn -0.4473 -0.7744 0.4473
vn -0.4915 -0.8623 0.1216
vn -0.1216 -0.4915 0.8623
vn -0.4473 -0.4474 0.7744
vn -0.1731 -0.1731 0.9696
vn -0.4915 -0.1216 0.8623
vn -0.8623 -0.1216 0.4915
vn -0.7744 -0.4473 0.4473
vn -0.9696 -0.1731 0.1731
vn -0.8623 -0.4915 0.1216
vn -0.1731 0.9696 -0.1731
vn -0.1216 0.8623 -0.4915
vn -0.4473 0.7744 -0.4473
vn -0.4915 0.8623 -0.1216
vn -0.1216 0.4915 -0.8623
vn -0.4473 0.4474 -0.7744
vn -0.1731 0.1731 -0.9696
vn -0.4915 0.1216 -0.8623
vn -0.8623 0.1216 -0.4915
vn -0.7744 0.4473 -0.4473
vn -0.9696 0.1731 -0.1731
vn -0.8623 0.4915 -0.1216
vn -0.1731 0.9696 0.1731
vn -0.4915 0.8623 0.1216
vn -0.4473 0.7744 0.4473
vn -0.1216 0.8623 0.4915
vn -0.8623 0.4915 0.1216
vn -0.7744 0.4473 0.4473
vn -0.9696 0.1731 0.1731
vn -0.8623 0.1216 0.4915
vn -0.4915 0.1216 0.8623
vn -0.4473 0.4473 0.7744
vn -0.1731 0.1731 0.9696
vn -0.1216 0.4915 0.8623
vn 0.1731 -0.1731 -0.9696
vn 0.4915 -0.1216 -0.8623
vn 0.4473 -0.4473 -0.7744
vn 0.1216 -0.4915 -0.8623
vn 0.8623 -0.1216 -0.4915
vn 0.7744 -0.4473 -0.4474
vn 0.9696 -0.1731 -0.1731
vn 0.8623 -0.4915 -0.1216
vn 0.4915 -0.8623 -0.1216
vn 0.4473 -0.7744 -0.4473
vn 0.1731 -0.9696 -0.1731
vn 0.1216 -0.8623 -0.4915
vn 0.9696 -0.1731 0.1731
vn 0.8623 -0.1216 0.4915
vn 0.7744 -0.4473 0.4473
vn 0.8623 -0.4915 0.1216
vn 0.4915 -0.1216 0.8623
vn 0.4473 -0.4473 0.7744
vn 0.1731 -0.1731 0.9696
vn 0.1216 -0.4915 0.8623
vn 0.1216 -0.8623 0.4915
vn 0.4473 -0.7744 0.4473
vn 0.1731 -0.9696 0.1731
vn 0.4915 -0.8623 0.1216
vn 0.1731 0.1731 -0.9696
vn 0.1216 0.4915 -0.8623
vn 0.4473 0.4473 -0.7744
vn 0.4915 0.1216 -0.8623
vn 0.1216 0.8623 -0.4915
vn 0.4473 0.7744 -0.4473
vn 0.1731 0.9696 -0.1731
vn 0.4915 0.8623 -0.1216
vn 0.8623 0.4915 -0.1216
vn 0.7744 0.4473 -0.4473
vn 0.9696 0.1731 -0.1731
vn 0.8623 0.1216 -0.4915
vn 0.1731 0.9696 0.1731
vn 0.1216 0.8623 0.4915
vn 0.4473 0.7744 0.4473
vn 0.4915 0.8623 0.1216
vn 0.1216 0.4915 0.8623
vn 0.4473 0.4474 0.7744
vn 0.1731 0.1731 0.9696
vn 0.4915 0.1216 0.8623
vn 0.8623 0.1216 0.4915
vn 0.7744 0.4473 0.4473
vn 0.9696 0.1731 0.1731
vn 0.8623 0.4915 0.1216
vn -0.0000 -1.0000 -0.0000
vt 0.379974 0.995027
vt 0.379974 0.004974
vt 0.129974 0.745026
vt 0.379974 1.000000
vt 0.379974 0.000000
vt 0.129974 0.750000
vt 0.375000 0.995026
vt 0.377595 1.000000
vt 0.125000 0.750000
vt 0.377595 0.000000
vt 0.375000 0.004974
vt 0.125000 0.745026
vt 0.379974 0.002490
vt 0.126310 0.747405
vt 0.377595 0.002595
vt 0.129974 0.747510
vt 0.127490 0.745026
vt 0.127595 0.747405
vt 0.376310 0.002595
vt 0.620026 0.995026
vt 0.870026 0.745026
vt 0.620026 0.004974
vt 0.622510 0.995026
vt 0.620026 1.000000
vt 0.620026 0.000000
vt 0.622405 0.001310
vt 0.622405 0.997405
vt 0.875000 0.745026
vt 0.625000 0.004974
vt 0.625000 0.995026
vt 0.870026 0.750000
vt 0.872405 0.750000
vt 0.625000 0.000000
vt 0.625000 0.997405
vt 0.620026 0.002490
vt 0.622510 0.004974
vt 0.622405 0.002595
vt 0.622405 0.998690
vt 0.379974 0.254974
vt 0.129974 0.504974
vt 0.379974 0.245026
vt 0.375000 0.254974
vt 0.129974 0.500000
vt 0.379974 0.252490
vt 0.375000 0.252595
vt 0.127595 0.500000
vt 0.127490 0.504974
vt 0.129974 0.502490
vt 0.127595 0.502595
vt 0.379974 0.247510
vt 0.375000 0.245026
vt 0.125000 0.504974
vt 0.375000 0.247405
vt 0.125000 0.502595
vt 0.620026 0.254974
vt 0.620026 0.245026
vt 0.870026 0.504974
vt 0.620026 0.252490
vt 0.622510 0.254974
vt 0.622405 0.252595
vt 0.622405 0.248690
vt 0.622510 0.245026
vt 0.620026 0.247510
vt 0.622405 0.247405
vt 0.870026 0.500000
vt 0.625000 0.254974
vt 0.875000 0.504974
vt 0.625000 0.245026
vt 0.875000 0.502595
vt 0.625000 0.250000
vt 0.625000 0.247405
vt 0.370026 0.745026
vt 0.379974 0.745026
vt 0.379974 0.754974
vt 0.372510 0.745026
vt 0.370026 0.747510
vt 0.372405 0.747405
vt 0.379974 0.747510
vt 0.377490 0.745026
vt 0.377595 0.747405
vt 0.373690 0.747405
vt 0.370026 0.750000
vt 0.375000 0.754974
vt 0.379974 0.752490
vt 0.375000 0.752595
vt 0.372405 0.750000
vt 0.620026 0.745026
vt 0.629974 0.745026
vt 0.620026 0.754974
vt 0.622510 0.745026
vt 0.620026 0.747510
vt 0.622405 0.747405
vt 0.625000 0.754974
vt 0.629974 0.750000
vt 0.627490 0.745026
vt 0.627595 0.747405
vt 0.623690 0.752595
vt 0.623690 0.747405
vt 0.620026 0.752490
vt 0.622510 0.754974
vt 0.622405 0.752595
vt 0.622405 0.748690
vt 0.370026 0.504974
vt 0.379974 0.495026
vt 0.379974 0.504974
vt 0.370026 0.502490
vt 0.372510 0.504974
vt 0.372405 0.502595
vt 0.379974 0.497510
vt 0.375000 0.495026
vt 0.370026 0.500000
vt 0.375000 0.497405
vt 0.372405 0.500000
vt 0.377490 0.504974
vt 0.379974 0.502490
vt 0.377595 0.502595
vt 0.373690 0.502595
vt 0.620026 0.495026
vt 0.629974 0.504974
vt 0.620026 0.504974
vt 0.622510 0.495026
vt 0.620026 0.497510
vt 0.622405 0.497405
vt 0.627490 0.504974
vt 0.629974 0.500000
vt 0.625000 0.495026
vt 0.627595 0.500000
vt 0.625000 0.497405
vt 0.620026 0.502490
vt 0.622510 0.504974
vt 0.622405 0.502595
vt 0.622405 0.498690
s 1
f 26/40/1 73/103/1 49/72/1 3/3/1
f 75/105/2 87/120/2 61/87/2 50/73/2
f 2/2/3 15/22/3 38/56/3 27/41/3
f 86/119/4 39/57/4 14/21/4 62/88/4
f 25/39/5 37/55/5 85/118/5 74/104/5
f 1/1/6 4/4/7 6/8/8 5/7/9
f 4/5/7 8/13/10 9/15/11 6/10/8
f 2/2/12 7/11/13 9/15/11 8/13/10
f 7/12/13 11/17/14 12/18/15 9/14/11
f 3/3/16 10/16/17 12/18/15 11/17/14
f 10/16/17 5/6/9 6/9/8 12/18/15
f 6/10/8 9/15/11 12/19/15
f 13/20/18 16/23/19 18/27/20 17/24/21
f 16/23/19 20/30/22 21/34/23 18/27/20
f 14/21/24 19/28/25 21/32/23 20/31/22
f 19/29/25 23/36/26 24/37/27 21/33/23
f 15/22/28 22/35/29 24/37/27 23/36/26
f 22/35/29 17/25/21 18/26/20 24/37/27
f 18/27/20 21/34/23 24/38/27
f 25/39/30 28/42/31 30/45/32 29/44/33
f 28/43/31 32/48/34 33/49/35 30/46/32
f 26/40/36 31/47/37 33/49/35 32/48/34
f 31/47/37 35/52/38 36/54/39 33/49/35
f 27/41/40 34/50/41 36/53/39 35/51/38
f 34/50/41 29/44/33 30/45/32 36/53/39
f 30/46/32 33/49/35 36/54/39
f 37/55/42 40/58/43 42/60/44 41/59/45
f 40/58/43 44/63/46 45/64/47 42/60/44
f 38/56/48 43/62/49 45/64/47 44/63/46
f 43/62/49 47/68/50 48/71/51 45/64/47
f 39/57/52 46/65/53 48/69/51 47/67/50
f 46/66/53 41/59/45 42/60/44 48/70/51
f 42/61/44 45/64/47 48/71/51
f 49/72/54 52/75/55 54/77/56 53/76/57
f 52/75/55 56/79/58 57/80/59 54/77/56
f 50/73/60 55/78/61 57/80/59 56/79/58
f 55/78/61 59/84/62 60/85/63 57/80/59
f 51/74/64 58/83/65 60/85/63 59/84/62
f 58/82/65 53/76/57 54/77/56 60/86/63
f 54/77/56 57/81/59 60/86/63
f 61/87/66 64/90/67 66/92/68 65/91/69
f 64/90/67 68/95/70 69/96/71 66/92/68
f 62/88/72 67/94/73 69/96/71 68/95/70
f 67/93/73 71/100/74 72/101/75 69/97/71
f 63/89/76 70/99/77 72/101/75 71/100/74
f 70/99/77 65/91/69 66/92/68 72/101/75
f 66/92/68 69/98/71 72/102/75
f 73/103/78 76/106/79 78/108/80 77/107/81
f 76/106/79 80/111/82 81/113/83 78/108/80
f 74/104/84 79/109/85 81/112/83 80/110/82
f 79/109/85 83/115/86 84/116/87 81/112/83
f 75/105/88 82/114/89 84/116/87 83/115/86
f 82/114/89 77/107/81 78/108/80 84/116/87
f 78/108/80 81/113/83 84/117/87
f 85/118/90 88/121/91 90/123/92 89/122/93
f 88/121/91 92/126/94 93/128/95 90/123/92
f 86/119/96 91/124/97 93/127/95 92/125/94
f 91/124/97 95/130/98 96/131/99 93/127/95
f 87/120/100 94/129/101 96/131/99 95/130/98
f 94/129/101 89/122/93 90/123/92 96/131/99
f 90/123/92 93/128/95 96/132/99
f 27/41/40 38/56/48 44/63/46 34/50/41
f 34/50/41 44/63/46 40/58/43 29/44/33
f 29/44/33 40/58/43 37/55/42 25/39/30
f 1/1/6 13/20/18 17/24/21 4/4/7
f 4/5/7 17/25/21 22/35/29 8/13/10
f 8/13/10 22/35/29 15/22/28 2/2/12
f 2/2/12 27/41/40 35/51/38 7/11/13
f 7/12/13 35/52/38 31/47/37 11/17/14
f 11/17/14 31/47/37 26/40/36 3/3/16
f 14/21/24 39/57/52 47/67/50 19/28/25
f 19/29/25 47/68/50 43/62/49 23/36/26
f 23/36/26 43/62/49 38/56/48 15/22/28
f 3/3/16 49/72/54 53/76/57 10/16/17
f 10/16/17 53/76/57 58/82/65 5/6/9
f 5/7/9 58/83/65 51/74/64 1/1/6
f 50/73/60 61/87/66 65/91/69 55/78/61
f 55/78/61 65/91/69 70/99/77 59/84/62
f 59/84/62 70/99/77 63/89/76 51/74/64
f 25/39/30 74/104/84 80/110/82 28/42/31
f 28/43/31 80/111/82 76/106/79 32/48/34
f 32/48/34 76/106/79 73/103/78 26/40/36
f 39/57/52 86/119/96 92/125/94 46/65/53
f 46/66/53 92/126/94 88/121/91 41/59/45
f 41/59/45 88/121/91 85/118/90 37/55/42
f 13/20/18 63/89/76 71/100/74 16/23/19
f 16/23/19 71/100/74 67/93/73 20/30/22
f 20/31/22 67/94/73 62/88/72 14/21/24
f 61/87/66 87/120/100 95/130/98 64/90/67
f 64/90/67 95/130/98 91/124/97 68/95/70
f 68/95/70 91/124/97 86/119/96 62/88/72
f 74/104/84 85/118/90 89/122/93 79/109/85
f 79/109/85 89/122/93 94/129/101 83/115/86
f 83/115/86 94/129/101 87/120/100 75/105/88
f 49/72/54 73/103/78 77/107/81 52/75/55
f 52/75/55 77/107/81 82/114/89 56/79/58
f 56/79/58 82/114/89 75/105/88 50/73/60
f 51/74/102 63/89/102 13/20/102 1/1/102
