# Blender 3.5.1
# www.blender.org
o Cylinder.001
v -0.002500 0.140774 -0.045000
v 0.002500 0.140774 -0.045000
v -0.000000 0.135104 -0.050000
v -0.000918 0.142603 -0.045000
v -0.002166 0.139771 -0.047497
v -0.000646 0.141528 -0.047391
v 0.002166 0.139771 -0.047497
v 0.000918 0.142603 -0.045000
v 0.000646 0.141528 -0.047391
v -0.001248 0.137690 -0.049332
v 0.001248 0.137690 -0.049332
v -0.000000 0.140063 -0.048683
v -0.002500 0.140774 0.045000
v 0.000000 0.135104 0.050000
v 0.002500 0.140774 0.045000
v -0.002166 0.139771 0.047497
v -0.000918 0.142603 0.045000
v -0.000646 0.141528 0.047391
v 0.001248 0.137690 0.049332
v -0.001248 0.137690 0.049332
v 0.000000 0.140063 0.048683
v 0.000918 0.142603 0.045000
v 0.002166 0.139771 0.047497
v 0.000646 0.141528 0.047391
v 0.120664 -0.072552 -0.045000
v 0.117004 -0.067552 -0.050000
v 0.123164 -0.068222 -0.045000
v 0.119963 -0.071762 -0.047497
v 0.123039 -0.072096 -0.045000
v 0.122244 -0.071323 -0.047391
v 0.119868 -0.067764 -0.049332
v 0.118619 -0.069926 -0.049332
v 0.121298 -0.070031 -0.048683
v 0.123957 -0.070507 -0.045000
v 0.122129 -0.068010 -0.047497
v 0.122890 -0.070204 -0.047391
v 0.120664 -0.072552 0.045000
v 0.123164 -0.068222 0.045000
v 0.117004 -0.067552 0.050000
v 0.123039 -0.072096 0.045000
v 0.119963 -0.071762 0.047497
v 0.122244 -0.071323 0.047391
v 0.122129 -0.068010 0.047497
v 0.123957 -0.070507 0.045000
v 0.122890 -0.070204 0.047391
v 0.118619 -0.069926 0.049332
v 0.119868 -0.067764 0.049332
v 0.121298 -0.070031 0.048683
v -0.120664 -0.072552 -0.045000
v -0.123164 -0.068222 -0.045000
v -0.117004 -0.067552 -0.050000
v -0.123039 -0.072096 -0.045000
v -0.119963 -0.071762 -0.047497
v -0.122244 -0.071323 -0.047391
v -0.122129 -0.068010 -0.047497
v -0.123957 -0.070507 -0.045000
v -0.122890 -0.070204 -0.047391
v -0.118619 -0.069926 -0.049332
v -0.119868 -0.067764 -0.049332
v -0.121298 -0.070031 -0.048683
v -0.120664 -0.072552 0.045000
v -0.117004 -0.067552 0.050000
v -0.123164 -0.068222 0.045000
v -0.119963 -0.071762 0.047497
v -0.123039 -0.072096 0.045000
v -0.122244 -0.071323 0.047391
v -0.119868 -0.067764 0.049332
v -0.118619 -0.069926 0.049332
v -0.121298 -0.070031 0.048683
v -0.123957 -0.070507 0.045000
v -0.122129 -0.068010 0.047497
v -0.122890 -0.070204 0.047391
vn -0.0000 -0.0000 -1.0000
vn -0.0000 -1.0000 -0.0000
vn 0.8660 0.5000 -0.0000
vn -0.0000 -0.0000 1.0000
vn -0.7681 0.6006 -0.2219
vn -0.3989 0.8948 -0.2005
vn -0.3421 0.7391 -0.5803
vn -0.6758 0.4966 -0.5447
vn 0.3989 0.8948 -0.2005
vn 0.3421 0.7391 -0.5803
vn 0.7681 0.6006 -0.2219
vn 0.6758 0.4966 -0.5447
vn 0.3258 0.3136 -0.8919
vn -0.0000 0.4937 -0.8696
vn -0.0000 0.1598 -0.9872
vn -0.3258 0.3136 -0.8919
vn -0.7681 0.6006 0.2219
vn -0.6758 0.4966 0.5447
vn -0.3421 0.7391 0.5803
vn -0.3989 0.8948 0.2005
vn -0.3258 0.3136 0.8919
vn -0.0000 0.4937 0.8696
vn -0.0000 0.1598 0.9872
vn 0.3258 0.3136 0.8919
vn 0.6758 0.4966 0.5447
vn 0.3421 0.7391 0.5803
vn 0.7681 0.6006 0.2219
vn 0.3989 0.8948 0.2005
vn 0.1361 -0.9655 -0.2219
vn 0.0922 -0.8335 -0.5447
vn 0.4690 -0.6658 -0.5803
vn 0.5755 -0.7928 -0.2005
vn 0.1087 -0.4390 -0.8919
vn 0.4276 -0.2469 -0.8696
vn 0.1384 -0.0799 -0.9872
vn 0.4345 0.1253 -0.8919
vn 0.7679 0.3370 -0.5447
vn 0.8111 -0.0733 -0.5803
vn 0.9042 0.3649 -0.2219
vn 0.9744 -0.1020 -0.2005
vn 0.1361 -0.9655 0.2219
vn 0.5755 -0.7928 0.2005
vn 0.4690 -0.6658 0.5803
vn 0.0922 -0.8335 0.5447
vn 0.9744 -0.1020 0.2005
vn 0.8111 -0.0733 0.5803
vn 0.9042 0.3649 0.2219
vn 0.7679 0.3370 0.5447
vn 0.4345 0.1253 0.8919
vn 0.4276 -0.2469 0.8696
vn 0.1384 -0.0799 0.9872
vn 0.1087 -0.4390 0.8919
vn -0.1361 -0.9655 -0.2219
vn -0.5755 -0.7928 -0.2005
vn -0.4690 -0.6658 -0.5803
vn -0.0922 -0.8335 -0.5447
vn -0.9744 -0.1020 -0.2005
vn -0.8111 -0.0733 -0.5803
vn -0.9042 0.3649 -0.2219
vn -0.7679 0.3370 -0.5447
vn -0.4345 0.1253 -0.8919
vn -0.4276 -0.2469 -0.8696
vn -0.1384 -0.0799 -0.9872
vn -0.1087 -0.4390 -0.8919
vn -0.1361 -0.9655 0.2219
vn -0.0922 -0.8335 0.5447
vn -0.4690 -0.6658 0.5803
vn -0.5755 -0.7928 0.2005
vn -0.1087 -0.4390 0.8919
vn -0.4276 -0.2469 0.8696
vn -0.1384 -0.0799 0.9872
vn -0.4345 0.1253 0.8919
vn -0.7679 0.3370 0.5447
vn -0.8111 -0.0733 0.5803
vn -0.9042 0.3649 0.2219
vn -0.9744 -0.1020 0.2005
vn -0.8660 0.5000 -0.0000
vt 0.006631 0.525000
vt 0.993368 0.525000
vt 0.750000 0.473460
vt 0.003482 0.525000
vt 0.745285 0.481834
vt 0.007561 0.500000
vt 0.748931 0.484085
vt 0.004536 0.513045
vt 0.992439 0.500000
vt 0.754715 0.481834
vt 0.000000 0.525000
vt 1.000000 0.525000
vt 1.000000 0.513045
vt 0.750000 0.490000
vt 0.000000 0.513045
vt 0.747935 0.477738
vt 0.752065 0.477738
vt 0.750000 0.481661
vt 0.005791 0.506584
vt 0.006631 0.975000
vt 0.250000 0.473460
vt 0.993369 0.975000
vt 0.007561 1.000000
vt 0.245285 0.481834
vt 0.003482 0.975000
vt 0.004536 1.000000
vt 0.247172 0.485101
vt 0.252065 0.477738
vt 0.247935 0.477738
vt 0.250000 0.481661
vt 0.000000 0.975000
vt 1.000000 0.975000
vt 0.254715 0.481834
vt 0.992439 1.000000
vt 0.995464 1.000000
vt 0.002268 1.000000
vt 0.252828 0.485101
vt 0.660035 0.525000
vt 0.943522 0.138270
vt 0.673298 0.525000
vt 0.659106 0.500000
vt 0.948416 0.130000
vt 0.663185 0.525000
vt 0.662131 0.500000
vt 0.952189 0.130000
vt 0.948259 0.137919
vt 0.946194 0.134343
vt 0.950625 0.134169
vt 0.670149 0.525000
vt 0.674228 0.500000
vt 0.953131 0.138166
vt 0.671203 0.500000
vt 0.955018 0.134899
vt 0.660036 0.975000
vt 0.673298 0.975000
vt 0.443522 0.138270
vt 0.663185 0.975000
vt 0.448416 0.130000
vt 0.659106 1.000000
vt 0.452189 0.132032
vt 0.662131 0.986955
vt 0.453131 0.138166
vt 0.674228 1.000000
vt 0.670149 0.975000
vt 0.671203 0.986955
vt 0.453258 0.133883
vt 0.662988 0.986955
vt 0.446194 0.134343
vt 0.448259 0.137919
vt 0.450625 0.134169
vt 0.660876 0.993416
vt 0.339964 0.525000
vt 0.326702 0.525000
vt 0.556478 0.138270
vt 0.336815 0.525000
vt 0.340894 0.500000
vt 0.551584 0.130000
vt 0.337869 0.513045
vt 0.547811 0.132032
vt 0.329654 0.513045
vt 0.546869 0.138166
vt 0.325772 0.500000
vt 0.329851 0.525000
vt 0.546742 0.133883
vt 0.328797 0.513045
vt 0.553806 0.134343
vt 0.551741 0.137919
vt 0.549375 0.134169
vt 0.327542 0.506584
vt 0.339964 0.975000
vt 0.056478 0.138270
vt 0.326702 0.975000
vt 0.051584 0.130000
vt 0.340894 1.000000
vt 0.336815 0.975000
vt 0.337869 1.000000
vt 0.047811 0.130000
vt 0.051741 0.137919
vt 0.053806 0.134343
vt 0.049375 0.134169
vt 0.329851 0.975000
vt 0.325772 1.000000
vt 0.046869 0.138166
vt 0.328797 1.000000
vt 0.044982 0.134899
s 1
f 3/3/1 26/39/1 51/74/1
f 25/38/2 37/54/2 61/90/2 49/72/2
f 2/2/3 15/22/3 38/55/3 27/40/3
f 39/56/4 14/21/4 62/91/4
f 1/1/5 4/4/6 6/8/7 5/6/8
f 4/4/6 8/11/9 9/15/10 6/8/7
f 2/2/11 7/9/12 9/13/10 8/12/9
f 7/10/12 11/17/13 12/18/14 9/14/10
f 3/3/15 10/16/16 12/18/14 11/17/13
f 10/16/16 5/5/8 6/7/7 12/18/14
f 6/8/7 9/15/10 12/19/14
f 13/20/17 16/23/18 18/26/19 17/25/20
f 16/24/18 20/29/21 21/30/22 18/27/19
f 14/21/23 19/28/24 21/30/22 20/29/21
f 19/28/24 23/33/25 24/37/26 21/30/22
f 15/22/27 22/32/28 24/35/26 23/34/25
f 22/31/28 17/25/20 18/26/19 24/36/26
f 18/27/19 21/30/22 24/37/26
f 25/38/29 28/41/30 30/44/31 29/43/32
f 28/42/30 32/47/33 33/48/34 30/45/31
f 26/39/35 31/46/36 33/48/34 32/47/33
f 31/46/36 35/51/37 36/53/38 33/48/34
f 27/40/39 34/49/40 36/52/38 35/50/37
f 34/49/40 29/43/32 30/44/31 36/52/38
f 30/45/31 33/48/34 36/53/38
f 37/54/41 40/57/42 42/61/43 41/59/44
f 40/57/42 44/64/45 45/65/46 42/61/43
f 38/55/47 43/63/48 45/65/46 44/64/45
f 43/62/48 47/69/49 48/70/50 45/66/46
f 39/56/51 46/68/52 48/70/50 47/69/49
f 46/68/52 41/58/44 42/60/43 48/70/50
f 42/61/43 45/67/46 48/71/50
f 49/72/53 52/75/54 54/78/55 53/76/56
f 52/75/54 56/83/57 57/85/58 54/78/55
f 50/73/59 55/82/60 57/85/58 56/83/57
f 55/81/60 59/87/61 60/88/62 57/84/58
f 51/74/63 58/86/64 60/88/62 59/87/61
f 58/86/64 53/77/56 54/79/55 60/88/62
f 54/80/55 57/85/58 60/89/62
f 61/90/65 64/94/66 66/96/67 65/95/68
f 64/93/66 68/99/69 69/100/70 66/97/67
f 62/91/71 67/98/72 69/100/70 68/99/69
f 67/98/72 71/103/73 72/105/74 69/100/70
f 63/92/75 70/101/76 72/104/74 71/102/73
f 70/101/76 65/95/68 66/96/67 72/104/74
f 66/97/67 69/100/70 72/105/74
f 27/40/39 38/55/47 44/64/45 34/49/40
f 34/49/40 44/64/45 40/57/42 29/43/32
f 29/43/32 40/57/42 37/54/41 25/38/29
f 1/1/5 13/20/17 17/25/20 4/4/6
f 4/4/6 17/25/20 22/31/28 8/11/9
f 8/12/9 22/32/28 15/22/27 2/2/11
f 2/2/11 27/40/39 35/50/37 7/9/12
f 7/10/12 35/51/37 31/46/36 11/17/13
f 11/17/13 31/46/36 26/39/35 3/3/15
f 14/21/23 39/56/51 47/69/49 19/28/24
f 19/28/24 47/69/49 43/62/48 23/33/25
f 23/34/25 43/63/48 38/55/47 15/22/27
f 25/38/29 49/72/53 53/76/56 28/41/30
f 28/42/30 53/77/56 58/86/64 32/47/33
f 32/47/33 58/86/64 51/74/63 26/39/35
f 39/56/51 62/91/71 68/99/69 46/68/52
f 46/68/52 68/99/69 64/93/66 41/58/44
f 41/59/44 64/94/66 61/90/65 37/54/41
f 13/20/17 63/92/75 71/102/73 16/23/18
f 16/24/18 71/103/73 67/98/72 20/29/21
f 20/29/21 67/98/72 62/91/71 14/21/23
f 3/3/15 51/74/63 59/87/61 10/16/16
f 10/16/16 59/87/61 55/81/60 5/5/8
f 5/6/8 55/82/60 50/73/59 1/1/5
f 49/72/53 61/90/65 65/95/68 52/75/54
f 52/75/54 65/95/68 70/101/76 56/83/57
f 56/83/57 70/101/76 63/92/75 50/73/59
f 50/73/77 63/92/77 13/20/77 1/1/77
