# Blender 4.4.0
# www.blender.org
o Cube.001
v -1.580021 0.186704 -0.450000
v -1.594988 0.253080 -0.450000
v -1.555021 0.230005 -0.500000
v -1.596641 0.204013 -0.450000
v -1.576681 0.192489 -0.474970
v -1.592548 0.209144 -0.473910
v -1.589649 0.249998 -0.474970
v -1.602134 0.228373 -0.450000
v -1.596416 0.226296 -0.473910
v -1.567506 0.208381 -0.493320
v -1.574981 0.241529 -0.493320
v -1.586088 0.220333 -0.486830
v -1.580021 0.186704 0.450000
v -1.555021 0.230005 0.500000
v -1.594988 0.253080 0.450000
v -1.576681 0.192489 0.474970
v -1.596641 0.204013 0.450000
v -1.592548 0.209144 0.473910
v -1.574981 0.241529 0.493320
v -1.567506 0.208381 0.493320
v -1.586088 0.220333 0.486830
v -1.602134 0.228373 0.450000
v -1.589649 0.249998 0.474970
v -1.596416 0.226296 0.473910
v -0.951701 1.274986 -0.450000
v -0.976701 1.231685 -0.500000
v -1.016668 1.254760 -0.450000
v -0.955041 1.269201 -0.474970
v -0.975001 1.280725 -0.450000
v -0.977398 1.274615 -0.473910
v -0.996661 1.243209 -0.493320
v -0.964216 1.253310 -0.493320
v -0.983858 1.263426 -0.486830
v -0.998844 1.273302 -0.450000
v -1.011329 1.251677 -0.474970
v -0.994186 1.269389 -0.473910
v -0.951701 1.274986 0.450000
v -1.016668 1.254760 0.450000
v -0.976701 1.231685 0.500000
v -0.975001 1.280725 0.450000
v -0.955041 1.269201 0.474970
v -0.977398 1.274615 0.473910
v -1.011329 1.251677 0.474970
v -0.998844 1.273302 0.450000
v -0.994186 1.269389 0.473910
v -0.964216 1.253310 0.493320
v -0.996661 1.243209 0.493320
v -0.983858 1.263426 0.486830
v 0.976701 -1.231685 -0.500000
v 1.016668 -1.254760 -0.450000
v 0.951701 -1.274986 -0.450000
v 0.996661 -1.243209 -0.493320
v 0.964216 -1.253310 -0.493320
v 0.983858 -1.263426 -0.486830
v 0.998844 -1.273302 -0.450000
v 1.011329 -1.251677 -0.474970
v 0.994186 -1.269389 -0.473910
v 0.955041 -1.269201 -0.474970
v 0.975001 -1.280725 -0.450000
v 0.977398 -1.274615 -0.473910
v 1.016668 -1.254760 0.450000
v 0.976701 -1.231685 0.500000
v 0.951701 -1.274986 0.450000
v 1.011329 -1.251677 0.474970
v 0.998844 -1.273302 0.450000
v 0.994186 -1.269389 0.473910
v 0.964216 -1.253310 0.493320
v 0.996661 -1.243209 0.493320
v 0.983858 -1.263426 0.486830
v 0.975001 -1.280725 0.450000
v 0.955041 -1.269201 0.474970
v 0.977398 -1.274615 0.473910
v 1.555021 -0.230005 -0.500000
v 1.580021 -0.186704 -0.450000
v 1.594988 -0.253080 -0.450000
v 1.567506 -0.208381 -0.493320
v 1.574981 -0.241529 -0.493320
v 1.586088 -0.220333 -0.486830
v 1.596641 -0.204013 -0.450000
v 1.576681 -0.192489 -0.474970
v 1.592548 -0.209144 -0.473910
v 1.589649 -0.249998 -0.474970
v 1.602134 -0.228373 -0.450000
v 1.596416 -0.226296 -0.473910
v 1.580021 -0.186704 0.450000
v 1.555021 -0.230005 0.500000
v 1.594988 -0.253080 0.450000
v 1.576681 -0.192489 0.474970
v 1.596641 -0.204013 0.450000
v 1.592548 -0.209144 0.473910
v 1.574981 -0.241529 0.493320
v 1.567506 -0.208381 0.493320
v 1.586088 -0.220333 0.486830
v 1.602134 -0.228373 0.450000
v 1.589649 -0.249998 0.474970
v 1.596416 -0.226296 0.473910
vn -0.0000 -0.0000 -1.0000
vn 0.8660 -0.5000 -0.0000
vn -0.8660 0.5000 -0.0000
vn -0.0000 -0.0000 1.0000
vn 0.5000 0.8660 -0.0000
vn -0.6455 -0.7440 -0.1726
vn -0.8742 -0.4707 -0.1191
vn -0.7933 -0.4211 -0.4398
vn -0.5446 -0.6800 -0.4909
vn -0.9927 0.0390 -0.1144
vn -0.9043 0.0305 -0.4257
vn -0.9237 0.3480 -0.1605
vn -0.8186 0.3405 -0.4626
vn -0.5114 0.1577 -0.8448
vn -0.6325 -0.1426 -0.7613
vn -0.2483 -0.0560 -0.9671
vn -0.3594 -0.3594 -0.8612
vn -0.6455 -0.7440 0.1726
vn -0.5446 -0.6800 0.4909
vn -0.7933 -0.4211 0.4398
vn -0.8742 -0.4707 0.1191
vn -0.3594 -0.3594 0.8612
vn -0.6325 -0.1426 0.7613
vn -0.2483 -0.0560 0.9671
vn -0.5114 0.1577 0.8448
vn -0.8186 0.3405 0.4626
vn -0.9043 0.0305 0.4257
vn -0.9237 0.3480 0.1605
vn -0.9927 0.0390 0.1144
vn 0.3216 0.9310 -0.1726
vn 0.3166 0.8116 -0.4909
vn -0.0320 0.8975 -0.4398
vn -0.0294 0.9924 -0.1191
vn 0.1315 0.4909 -0.8612
vn -0.1927 0.6191 -0.7613
vn -0.0757 0.2430 -0.9671
vn -0.3923 0.3640 -0.8448
vn -0.7042 0.5387 -0.4626
vn -0.4786 0.7679 -0.4257
vn -0.7632 0.6259 -0.1605
vn -0.5301 0.8402 -0.1144
vn 0.3216 0.9310 0.1726
vn -0.0294 0.9924 0.1191
vn -0.0320 0.8975 0.4398
vn 0.3166 0.8116 0.4909
vn -0.5301 0.8402 0.1144
vn -0.4786 0.7679 0.4257
vn -0.7632 0.6259 0.1605
vn -0.7042 0.5387 0.4626
vn -0.3923 0.3640 0.8448
vn -0.1927 0.6191 0.7613
vn -0.0757 0.2430 0.9671
vn 0.1315 0.4909 0.8612
vn 0.0757 -0.2430 -0.9671
vn 0.3923 -0.3640 -0.8448
vn 0.1927 -0.6191 -0.7613
vn -0.1315 -0.4909 -0.8612
vn 0.7042 -0.5387 -0.4626
vn 0.4786 -0.7679 -0.4257
vn 0.7632 -0.6259 -0.1605
vn 0.5301 -0.8402 -0.1144
vn 0.0294 -0.9924 -0.1191
vn 0.0320 -0.8975 -0.4398
vn -0.3216 -0.9310 -0.1726
vn -0.3166 -0.8116 -0.4909
vn 0.7632 -0.6259 0.1605
vn 0.7042 -0.5387 0.4626
vn 0.4786 -0.7679 0.4257
vn 0.5301 -0.8402 0.1144
vn 0.3923 -0.3640 0.8448
vn 0.1927 -0.6191 0.7613
vn 0.0757 -0.2430 0.9671
vn -0.1315 -0.4909 0.8612
vn -0.3166 -0.8116 0.4909
vn 0.0320 -0.8975 0.4398
vn -0.3216 -0.9310 0.1726
vn 0.0294 -0.9924 0.1191
vn 0.2483 0.0560 -0.9671
vn 0.3594 0.3594 -0.8612
vn 0.6325 0.1426 -0.7613
vn 0.5114 -0.1577 -0.8448
vn 0.5446 0.6800 -0.4909
vn 0.7933 0.4211 -0.4398
vn 0.6455 0.7440 -0.1726
vn 0.8742 0.4707 -0.1191
vn 0.9927 -0.0390 -0.1144
vn 0.9043 -0.0305 -0.4257
vn 0.9237 -0.3480 -0.1605
vn 0.8186 -0.3405 -0.4626
vn 0.6455 0.7440 0.1726
vn 0.5446 0.6800 0.4909
vn 0.7933 0.4211 0.4398
vn 0.8742 0.4707 0.1191
vn 0.3594 0.3594 0.8612
vn 0.6325 0.1426 0.7613
vn 0.2483 0.0560 0.9671
vn 0.5114 -0.1577 0.8448
vn 0.8186 -0.3405 0.4626
vn 0.9043 -0.0305 0.4257
vn 0.9237 -0.3480 0.1605
vn 0.9927 -0.0390 0.1144
vn -0.5000 -0.8660 -0.0000
vt 0.128826 0.509947
vt 0.371174 0.509947
vt 0.371174 0.740053
vt 0.128826 0.740053
vt 0.387500 0.509947
vt 0.612500 0.509947
vt 0.612500 0.740053
vt 0.387500 0.740053
vt 0.387500 0.009947
vt 0.612500 0.009947
vt 0.612500 0.240053
vt 0.387500 0.240053
vt 0.628826 0.509947
vt 0.871174 0.509947
vt 0.871174 0.740053
vt 0.628826 0.740053
vt 0.387500 0.253826
vt 0.612500 0.253826
vt 0.612500 0.496174
vt 0.387500 0.496174
vt 0.387500 0.996174
vt 0.387500 1.000000
vt 0.381522 1.000000
vt 0.375000 0.996174
vt 0.387500 0.000000
vt 0.387500 0.004980
vt 0.381522 0.005190
vt 0.381522 0.000000
vt 0.375000 0.009947
vt 0.125000 0.740053
vt 0.126915 0.740053
vt 0.126996 0.744810
vt 0.126008 0.744810
vt 0.128826 0.745020
vt 0.128826 0.750000
vt 0.125000 0.750000
vt 0.378292 0.005190
vt 0.612500 0.996174
vt 0.618742 0.996174
vt 0.618478 0.998004
vt 0.612500 1.000000
vt 0.625000 0.996174
vt 0.625000 0.998004
vt 0.875000 0.740053
vt 0.873004 0.750000
vt 0.871174 0.750000
vt 0.625000 0.009947
vt 0.618742 0.009947
vt 0.618478 0.005190
vt 0.625000 0.000000
vt 0.612500 0.004980
vt 0.612500 0.000000
vt 0.618478 0.002620
vt 0.618478 0.998992
vt 0.375000 0.253826
vt 0.375000 0.251996
vt 0.387500 0.251915
vt 0.128826 0.500000
vt 0.128826 0.504980
vt 0.126996 0.505190
vt 0.126996 0.500000
vt 0.126915 0.509947
vt 0.125000 0.509947
vt 0.125000 0.505190
vt 0.387500 0.245020
vt 0.375000 0.244810
vt 0.375000 0.240053
vt 0.612500 0.251915
vt 0.618478 0.251996
vt 0.618742 0.253826
vt 0.612500 0.245020
vt 0.618478 0.244810
vt 0.618742 0.240053
vt 0.625000 0.240053
vt 0.625000 0.244810
vt 0.871174 0.500000
vt 0.875000 0.505190
vt 0.875000 0.509947
vt 0.625000 0.253826
vt 0.625000 0.250000
vt 0.618478 0.247380
vt 0.373085 0.740053
vt 0.373004 0.744810
vt 0.371174 0.745020
vt 0.381258 0.740053
vt 0.381522 0.744810
vt 0.387500 0.745020
vt 0.387500 0.751915
vt 0.375000 0.751996
vt 0.387500 0.753826
vt 0.375000 0.753826
vt 0.371174 0.750000
vt 0.373004 0.750000
vt 0.373992 0.744810
vt 0.618742 0.740053
vt 0.618478 0.744810
vt 0.612500 0.745020
vt 0.626915 0.740053
vt 0.626996 0.744810
vt 0.628826 0.750000
vt 0.625000 0.753826
vt 0.618742 0.753826
vt 0.618478 0.751996
vt 0.621708 0.751996
vt 0.612500 0.753826
vt 0.612500 0.751915
vt 0.621708 0.744810
vt 0.618478 0.747380
vt 0.371174 0.504980
vt 0.373004 0.505190
vt 0.373085 0.509947
vt 0.371174 0.500000
vt 0.373004 0.500000
vt 0.387500 0.498085
vt 0.375000 0.498004
vt 0.375000 0.496174
vt 0.387500 0.504980
vt 0.381522 0.505190
vt 0.381258 0.509947
vt 0.373992 0.505190
vt 0.618742 0.496174
vt 0.618478 0.498004
vt 0.612500 0.498085
vt 0.625000 0.496174
vt 0.625000 0.498004
vt 0.626915 0.509947
vt 0.626996 0.500000
vt 0.628826 0.500000
vt 0.618742 0.509947
vt 0.618478 0.505190
vt 0.612500 0.504980
vt 0.618478 0.498992
s 1
f 26/1/1 73/2/1 49/3/1 3/4/1
f 75/5/2 87/6/2 61/7/2 50/8/2
f 2/9/3 15/10/3 38/11/3 27/12/3
f 86/13/4 39/14/4 14/15/4 62/16/4
f 25/17/5 37/18/5 85/19/5 74/20/5
f 1/21/6 4/22/7 6/23/8 5/24/9
f 4/25/7 8/26/10 9/27/11 6/28/8
f 2/9/12 7/29/13 9/27/11 8/26/10
f 7/30/13 11/31/14 12/32/15 9/33/11
f 3/4/16 10/34/17 12/32/15 11/31/14
f 10/34/17 5/35/9 6/36/8 12/32/15
f 6/28/8 9/27/11 12/37/15
f 13/38/18 16/39/19 18/40/20 17/41/21
f 16/39/19 20/42/22 21/43/23 18/40/20
f 14/15/24 19/44/25 21/45/23 20/46/22
f 19/47/25 23/48/26 24/49/27 21/50/23
f 15/10/28 22/51/29 24/49/27 23/48/26
f 22/51/29 17/52/21 18/53/20 24/49/27
f 18/40/20 21/43/23 24/54/27
f 25/17/30 28/55/31 30/56/32 29/57/33
f 28/58/31 32/59/34 33/60/35 30/61/32
f 26/1/36 31/62/37 33/60/35 32/59/34
f 31/62/37 35/63/38 36/64/39 33/60/35
f 27/12/40 34/65/41 36/66/39 35/67/38
f 34/65/41 29/57/33 30/56/32 36/66/39
f 30/61/32 33/60/35 36/64/39
f 37/18/42 40/68/43 42/69/44 41/70/45
f 40/68/43 44/71/46 45/72/47 42/69/44
f 38/11/48 43/73/49 45/72/47 44/71/46
f 43/73/49 47/74/50 48/75/51 45/72/47
f 39/14/52 46/76/53 48/77/51 47/78/50
f 46/79/53 41/70/45 42/69/44 48/80/51
f 42/81/44 45/72/47 48/75/51
f 49/3/54 52/82/55 54/83/56 53/84/57
f 52/82/55 56/85/58 57/86/59 54/83/56
f 50/8/60 55/87/61 57/86/59 56/85/58
f 55/87/61 59/88/62 60/89/63 57/86/59
f 51/90/64 58/91/65 60/89/63 59/88/62
f 58/92/65 53/84/57 54/83/56 60/93/63
f 54/83/56 57/94/59 60/93/63
f 61/7/66 64/95/67 66/96/68 65/97/69
f 64/95/67 68/98/70 69/99/71 66/96/68
f 62/16/72 67/100/73 69/99/71 68/98/70
f 67/101/73 71/102/74 72/103/75 69/104/71
f 63/105/76 70/106/77 72/103/75 71/102/74
f 70/106/77 65/97/69 66/96/68 72/103/75
f 66/96/68 69/107/71 72/108/75
f 73/2/78 76/109/79 78/110/80 77/111/81
f 76/109/79 80/112/82 81/113/83 78/110/80
f 74/20/84 79/114/85 81/115/83 80/116/82
f 79/114/85 83/117/86 84/118/87 81/115/83
f 75/5/88 82/119/89 84/118/87 83/117/86
f 82/119/89 77/111/81 78/110/80 84/118/87
f 78/110/80 81/113/83 84/120/87
f 85/19/90 88/121/91 90/122/92 89/123/93
f 88/121/91 92/124/94 93/125/95 90/122/92
f 86/13/96 91/126/97 93/127/95 92/128/94
f 91/126/97 95/129/98 96/130/99 93/127/95
f 87/6/100 94/131/101 96/130/99 95/129/98
f 94/131/101 89/123/93 90/122/92 96/130/99
f 90/122/92 93/125/95 96/132/99
f 27/12/40 38/11/48 44/71/46 34/65/41
f 34/65/41 44/71/46 40/68/43 29/57/33
f 29/57/33 40/68/43 37/18/42 25/17/30
f 1/21/6 13/38/18 17/41/21 4/22/7
f 4/25/7 17/52/21 22/51/29 8/26/10
f 8/26/10 22/51/29 15/10/28 2/9/12
f 2/9/12 27/12/40 35/67/38 7/29/13
f 7/30/13 35/63/38 31/62/37 11/31/14
f 11/31/14 31/62/37 26/1/36 3/4/16
f 14/15/24 39/14/52 47/78/50 19/44/25
f 19/47/25 47/74/50 43/73/49 23/48/26
f 23/48/26 43/73/49 38/11/48 15/10/28
f 3/4/16 49/3/54 53/84/57 10/34/17
f 10/34/17 53/84/57 58/92/65 5/35/9
f 5/24/9 58/91/65 51/90/64 1/21/6
f 50/8/60 61/7/66 65/97/69 55/87/61
f 55/87/61 65/97/69 70/106/77 59/88/62
f 59/88/62 70/106/77 63/105/76 51/90/64
f 25/17/30 74/20/84 80/116/82 28/55/31
f 28/58/31 80/112/82 76/109/79 32/59/34
f 32/59/34 76/109/79 73/2/78 26/1/36
f 39/14/52 86/13/96 92/128/94 46/76/53
f 46/79/53 92/124/94 88/121/91 41/70/45
f 41/70/45 88/121/91 85/19/90 37/18/42
f 13/38/18 63/105/76 71/102/74 16/39/19
f 16/39/19 71/102/74 67/101/73 20/42/22
f 20/46/22 67/100/73 62/16/72 14/15/24
f 61/7/66 87/6/100 95/129/98 64/95/67
f 64/95/67 95/129/98 91/126/97 68/98/70
f 68/98/70 91/126/97 86/13/96 62/16/72
f 74/20/84 85/19/90 89/123/93 79/114/85
f 79/114/85 89/123/93 94/131/101 83/117/86
f 83/117/86 94/131/101 87/6/100 75/5/88
f 49/3/54 73/2/78 77/111/81 52/82/55
f 52/82/55 77/111/81 82/119/89 56/85/58
f 56/85/58 82/119/89 75/5/88 50/8/60
f 51/90/102 63/105/102 13/38/102 1/21/102
