# Blender 4.4.0
# www.blender.org
o Cube.001
v -1.416080 -1.256640 -0.450000
v -1.450270 -1.209210 -0.450000
v -1.396710 -1.206640 -0.500000
v -1.439590 -1.250770 -0.450000
v -1.412840 -1.249490 -0.474970
v -1.435360 -1.243810 -0.473910
v -1.442460 -1.208390 -0.474970
v -1.452140 -1.233360 -0.450000
v -1.444190 -1.231550 -0.473910
v -1.405730 -1.231140 -0.493320
v -1.422800 -1.207450 -0.493320
v -1.430350 -1.230890 -0.486830
v -1.416080 -1.256640 0.450000
v -1.396710 -1.206640 0.500000
v -1.450270 -1.209210 0.450000
v -1.412840 -1.249490 0.474970
v -1.439590 -1.250770 0.450000
v -1.435360 -1.243810 0.473910
v -1.422800 -1.207450 0.493320
v -1.405730 -1.231140 0.493320
v -1.430350 -1.230890 0.486830
v -1.452140 -1.233360 0.450000
v -1.442460 -1.208390 0.474970
v -1.444190 -1.231550 0.473910
v -0.578320 1.256640 -0.450000
v -0.592280 1.206640 -0.500000
v -0.644130 1.209210 -0.450000
v -0.579850 1.249490 -0.474970
v -0.605740 1.250770 -0.450000
v -0.606150 1.243810 -0.473910
v -0.617830 1.207450 -0.493320
v -0.584970 1.231140 -0.493320
v -0.609760 1.230890 -0.486830
v -0.629890 1.233360 -0.450000
v -0.636870 1.208390 -0.474970
v -0.623160 1.231550 -0.473910
v -0.578320 1.256640 0.450000
v -0.644130 1.209210 0.450000
v -0.592280 1.206640 0.500000
v -0.605740 1.250770 0.450000
v -0.579850 1.249490 0.474970
v -0.606150 1.243810 0.473910
v -0.636870 1.208390 0.474970
v -0.629890 1.233360 0.450000
v -0.623160 1.231550 0.473910
v -0.584970 1.231140 0.493320
v -0.617830 1.207450 0.493320
v -0.609760 1.230890 0.486830
v 1.396710 -1.206640 -0.500000
v 1.450270 -1.209210 -0.450000
v 1.416080 -1.256640 -0.450000
v 1.422800 -1.207450 -0.493320
v 1.405730 -1.231140 -0.493320
v 1.430350 -1.230890 -0.486830
v 1.452140 -1.233360 -0.450000
v 1.442460 -1.208390 -0.474970
v 1.444190 -1.231550 -0.473910
v 1.412840 -1.249490 -0.474970
v 1.439590 -1.250770 -0.450000
v 1.435360 -1.243810 -0.473910
v 1.450270 -1.209210 0.450000
v 1.396710 -1.206640 0.500000
v 1.416080 -1.256640 0.450000
v 1.442460 -1.208390 0.474970
v 1.452140 -1.233360 0.450000
v 1.444190 -1.231550 0.473910
v 1.405730 -1.231140 0.493320
v 1.422800 -1.207450 0.493320
v 1.430350 -1.230890 0.486830
v 1.439590 -1.250770 0.450000
v 1.412840 -1.249490 0.474970
v 1.435360 -1.243810 0.473910
v 0.592280 1.206640 -0.500000
v 0.578320 1.256640 -0.450000
v 0.644130 1.209210 -0.450000
v 0.584970 1.231140 -0.493320
v 0.617830 1.207450 -0.493320
v 0.609760 1.230890 -0.486830
v 0.605740 1.250770 -0.450000
v 0.579850 1.249490 -0.474970
v 0.606150 1.243810 -0.473910
v 0.636870 1.208390 -0.474970
v 0.629890 1.233360 -0.450000
v 0.623160 1.231550 -0.473910
v 0.578320 1.256640 0.450000
v 0.592280 1.206640 0.500000
v 0.644130 1.209210 0.450000
v 0.579850 1.249490 0.474970
v 0.605740 1.250770 0.450000
v 0.606150 1.243810 0.473910
v 0.617830 1.207450 0.493320
v 0.584970 1.231140 0.493320
v 0.609760 1.230890 0.486830
v 0.629890 1.233360 0.450000
v 0.636870 1.208390 0.474970
v 0.623160 1.231550 0.473910
vn -0.0000 -0.0000 -1.0000
vn 0.9487 0.3162 -0.0000
vn -0.9487 0.3162 -0.0000
vn -0.0000 -0.0000 1.0000
vn -0.0000 1.0000 -0.0000
vn -0.1681 -0.9663 -0.1949
vn -0.5543 -0.8176 -0.1560
vn -0.4842 -0.7102 -0.5111
vn -0.1163 -0.8471 -0.5185
vn -0.9509 -0.2672 -0.1560
vn -0.8269 -0.2346 -0.5111
vn -0.9699 0.1461 -0.1949
vn -0.8404 0.1576 -0.5186
vn -0.4745 0.0317 -0.8797
vn -0.4565 -0.3290 -0.8267
vn -0.1557 -0.1122 -0.9814
vn -0.1200 -0.4602 -0.8796
vn -0.1681 -0.9663 0.1949
vn -0.1163 -0.8471 0.5185
vn -0.4842 -0.7102 0.5111
vn -0.5543 -0.8176 0.1560
vn -0.1200 -0.4602 0.8796
vn -0.4565 -0.3290 0.8267
vn -0.1557 -0.1122 0.9814
vn -0.4745 0.0317 0.8797
vn -0.8404 0.1576 0.5186
vn -0.8269 -0.2346 0.5111
vn -0.9699 0.1461 0.1949
vn -0.9509 -0.2672 0.1560
vn -0.1374 0.9738 -0.1812
vn -0.0958 0.8648 -0.4929
vn -0.3627 0.8227 -0.4378
vn -0.3969 0.9095 -0.1234
vn -0.1026 0.5130 -0.8522
vn -0.3871 0.5371 -0.7495
vn -0.1716 0.2381 -0.9560
vn -0.4542 0.2595 -0.8523
vn -0.7901 0.3644 -0.4929
vn -0.6658 0.6042 -0.4379
vn -0.8804 0.4384 -0.1811
vn -0.7374 0.6641 -0.1234
vn -0.1374 0.9738 0.1812
vn -0.3969 0.9095 0.1234
vn -0.3627 0.8227 0.4378
vn -0.0958 0.8648 0.4929
vn -0.7374 0.6641 0.1234
vn -0.6658 0.6042 0.4379
vn -0.8804 0.4384 0.1811
vn -0.7901 0.3644 0.4929
vn -0.4542 0.2595 0.8523
vn -0.3871 0.5371 0.7495
vn -0.1716 0.2381 0.9560
vn -0.1026 0.5130 0.8522
vn 0.1557 -0.1122 -0.9814
vn 0.4745 0.0317 -0.8797
vn 0.4565 -0.3290 -0.8267
vn 0.1200 -0.4602 -0.8796
vn 0.8404 0.1576 -0.5186
vn 0.8269 -0.2346 -0.5111
vn 0.9699 0.1461 -0.1949
vn 0.9509 -0.2672 -0.1560
vn 0.5543 -0.8176 -0.1560
vn 0.4842 -0.7102 -0.5111
vn 0.1681 -0.9663 -0.1949
vn 0.1163 -0.8471 -0.5185
vn 0.9699 0.1461 0.1949
vn 0.8404 0.1576 0.5186
vn 0.8269 -0.2346 0.5111
vn 0.9509 -0.2672 0.1560
vn 0.4745 0.0317 0.8797
vn 0.4565 -0.3290 0.8267
vn 0.1557 -0.1122 0.9814
vn 0.1200 -0.4602 0.8796
vn 0.1163 -0.8471 0.5185
vn 0.4842 -0.7102 0.5111
vn 0.1681 -0.9663 0.1949
vn 0.5543 -0.8176 0.1560
vn 0.1716 0.2381 -0.9560
vn 0.1026 0.5130 -0.8522
vn 0.3871 0.5371 -0.7495
vn 0.4542 0.2595 -0.8523
vn 0.0958 0.8648 -0.4929
vn 0.3627 0.8227 -0.4378
vn 0.1374 0.9738 -0.1812
vn 0.3969 0.9095 -0.1234
vn 0.7374 0.6641 -0.1234
vn 0.6658 0.6042 -0.4379
vn 0.8804 0.4384 -0.1811
vn 0.7901 0.3644 -0.4929
vn 0.1374 0.9738 0.1812
vn 0.0958 0.8648 0.4929
vn 0.3627 0.8227 0.4378
vn 0.3969 0.9095 0.1234
vn 0.1026 0.5130 0.8522
vn 0.3871 0.5371 0.7495
vn 0.1716 0.2381 0.9560
vn 0.4542 0.2595 0.8523
vn 0.7901 0.3644 0.4929
vn 0.6658 0.6042 0.4379
vn 0.8804 0.4384 0.1811
vn 0.7374 0.6641 0.1234
vn -0.0000 -1.0000 -0.0000
vt 0.133769 0.504974
vt 0.366231 0.504974
vt 0.370089 0.745026
vt 0.129911 0.745026
vt 0.387500 0.504718
vt 0.612500 0.504718
vt 0.612500 0.745282
vt 0.387500 0.745282
vt 0.387500 0.004718
vt 0.612500 0.004718
vt 0.612500 0.245282
vt 0.387500 0.245282
vt 0.633769 0.504974
vt 0.866231 0.504974
vt 0.870089 0.745026
vt 0.629911 0.745026
vt 0.387500 0.259947
vt 0.612500 0.259947
vt 0.612500 0.490053
vt 0.387500 0.490053
vt 0.387500 0.995737
vt 0.387500 1.000000
vt 0.381522 1.000000
vt 0.375000 0.995461
vt 0.387500 0.000000
vt 0.387500 0.002500
vt 0.381522 0.002899
vt 0.381522 0.000000
vt 0.375000 0.005024
vt 0.125000 0.744976
vt 0.127566 0.745107
vt 0.127524 0.747438
vt 0.126289 0.747504
vt 0.129694 0.747463
vt 0.129539 0.750000
vt 0.125000 0.750000
vt 0.378292 0.003372
vt 0.612500 0.995737
vt 0.618742 0.995461
vt 0.618478 0.997381
vt 0.612500 1.000000
vt 0.625000 0.994855
vt 0.625000 0.996954
vt 0.875000 0.744305
vt 0.871954 0.750000
vt 0.869855 0.750000
vt 0.625000 0.005695
vt 0.618742 0.005024
vt 0.618478 0.002899
vt 0.625000 0.001066
vt 0.612500 0.002500
vt 0.612500 0.000000
vt 0.618478 0.002065
vt 0.618478 0.998134
vt 0.375000 0.259643
vt 0.375000 0.254410
vt 0.387500 0.254493
vt 0.134643 0.500000
vt 0.134213 0.502537
vt 0.129533 0.502562
vt 0.129410 0.500000
vt 0.129240 0.504893
vt 0.125000 0.504574
vt 0.125000 0.502092
vt 0.387500 0.247869
vt 0.375000 0.247908
vt 0.375000 0.245426
vt 0.612500 0.254493
vt 0.618478 0.254410
vt 0.618742 0.259643
vt 0.612500 0.247869
vt 0.618478 0.247908
vt 0.618742 0.245426
vt 0.625000 0.245909
vt 0.625000 0.248248
vt 0.866376 0.500000
vt 0.875000 0.501751
vt 0.875000 0.504091
vt 0.625000 0.258624
vt 0.625000 0.248832
vt 0.618478 0.249513
vt 0.372434 0.745107
vt 0.372476 0.747438
vt 0.370306 0.747463
vt 0.381258 0.744976
vt 0.381522 0.747101
vt 0.387500 0.747500
vt 0.387500 0.752259
vt 0.375000 0.752619
vt 0.387500 0.754263
vt 0.375000 0.754539
vt 0.370461 0.750000
vt 0.372381 0.750000
vt 0.373711 0.747504
vt 0.618742 0.744976
vt 0.618478 0.747101
vt 0.612500 0.747500
vt 0.627566 0.745107
vt 0.627524 0.747438
vt 0.630145 0.750000
vt 0.625000 0.755145
vt 0.618742 0.754539
vt 0.618478 0.752619
vt 0.621708 0.753046
vt 0.612500 0.754263
vt 0.612500 0.752259
vt 0.621708 0.746628
vt 0.618478 0.747935
vt 0.365787 0.502537
vt 0.370467 0.502562
vt 0.370760 0.504893
vt 0.365357 0.500000
vt 0.370590 0.500000
vt 0.387500 0.495507
vt 0.375000 0.495590
vt 0.375000 0.490357
vt 0.387500 0.502131
vt 0.381522 0.502092
vt 0.381258 0.504574
vt 0.372859 0.502496
vt 0.618742 0.490357
vt 0.618478 0.495590
vt 0.612500 0.495507
vt 0.625000 0.491376
vt 0.625000 0.496307
vt 0.629240 0.504893
vt 0.628693 0.500000
vt 0.633624 0.500000
vt 0.618742 0.504574
vt 0.618478 0.502092
vt 0.612500 0.502131
vt 0.618478 0.498973
s 1
f 26/1/1 73/2/1 49/3/1 3/4/1
f 75/5/2 87/6/2 61/7/2 50/8/2
f 2/9/3 15/10/3 38/11/3 27/12/3
f 86/13/4 39/14/4 14/15/4 62/16/4
f 25/17/5 37/18/5 85/19/5 74/20/5
f 1/21/6 4/22/7 6/23/8 5/24/9
f 4/25/7 8/26/10 9/27/11 6/28/8
f 2/9/12 7/29/13 9/27/11 8/26/10
f 7/30/13 11/31/14 12/32/15 9/33/11
f 3/4/16 10/34/17 12/32/15 11/31/14
f 10/34/17 5/35/9 6/36/8 12/32/15
f 6/28/8 9/27/11 12/37/15
f 13/38/18 16/39/19 18/40/20 17/41/21
f 16/39/19 20/42/22 21/43/23 18/40/20
f 14/15/24 19/44/25 21/45/23 20/46/22
f 19/47/25 23/48/26 24/49/27 21/50/23
f 15/10/28 22/51/29 24/49/27 23/48/26
f 22/51/29 17/52/21 18/53/20 24/49/27
f 18/40/20 21/43/23 24/54/27
f 25/17/30 28/55/31 30/56/32 29/57/33
f 28/58/31 32/59/34 33/60/35 30/61/32
f 26/1/36 31/62/37 33/60/35 32/59/34
f 31/62/37 35/63/38 36/64/39 33/60/35
f 27/12/40 34/65/41 36/66/39 35/67/38
f 34/65/41 29/57/33 30/56/32 36/66/39
f 30/61/32 33/60/35 36/64/39
f 37/18/42 40/68/43 42/69/44 41/70/45
f 40/68/43 44/71/46 45/72/47 42/69/44
f 38/11/48 43/73/49 45/72/47 44/71/46
f 43/73/49 47/74/50 48/75/51 45/72/47
f 39/14/52 46/76/53 48/77/51 47/78/50
f 46/79/53 41/70/45 42/69/44 48/80/51
f 42/81/44 45/72/47 48/75/51
f 49/3/54 52/82/55 54/83/56 53/84/57
f 52/82/55 56/85/58 57/86/59 54/83/56
f 50/8/60 55/87/61 57/86/59 56/85/58
f 55/87/61 59/88/62 60/89/63 57/86/59
f 51/90/64 58/91/65 60/89/63 59/88/62
f 58/92/65 53/84/57 54/83/56 60/93/63
f 54/83/56 57/94/59 60/93/63
f 61/7/66 64/95/67 66/96/68 65/97/69
f 64/95/67 68/98/70 69/99/71 66/96/68
f 62/16/72 67/100/73 69/99/71 68/98/70
f 67/101/73 71/102/74 72/103/75 69/104/71
f 63/105/76 70/106/77 72/103/75 71/102/74
f 70/106/77 65/97/69 66/96/68 72/103/75
f 66/96/68 69/107/71 72/108/75
f 73/2/78 76/109/79 78/110/80 77/111/81
f 76/109/79 80/112/82 81/113/83 78/110/80
f 74/20/84 79/114/85 81/115/83 80/116/82
f 79/114/85 83/117/86 84/118/87 81/115/83
f 75/5/88 82/119/89 84/118/87 83/117/86
f 82/119/89 77/111/81 78/110/80 84/118/87
f 78/110/80 81/113/83 84/120/87
f 85/19/90 88/121/91 90/122/92 89/123/93
f 88/121/91 92/124/94 93/125/95 90/122/92
f 86/13/96 91/126/97 93/127/95 92/128/94
f 91/126/97 95/129/98 96/130/99 93/127/95
f 87/6/100 94/131/101 96/130/99 95/129/98
f 94/131/101 89/123/93 90/122/92 96/130/99
f 90/122/92 93/125/95 96/132/99
f 27/12/40 38/11/48 44/71/46 34/65/41
f 34/65/41 44/71/46 40/68/43 29/57/33
f 29/57/33 40/68/43 37/18/42 25/17/30
f 1/21/6 13/38/18 17/41/21 4/22/7
f 4/25/7 17/52/21 22/51/29 8/26/10
f 8/26/10 22/51/29 15/10/28 2/9/12
f 2/9/12 27/12/40 35/67/38 7/29/13
f 7/30/13 35/63/38 31/62/37 11/31/14
f 11/31/14 31/62/37 26/1/36 3/4/16
f 14/15/24 39/14/52 47/78/50 19/44/25
f 19/47/25 47/74/50 43/73/49 23/48/26
f 23/48/26 43/73/49 38/11/48 15/10/28
f 3/4/16 49/3/54 53/84/57 10/34/17
f 10/34/17 53/84/57 58/92/65 5/35/9
f 5/24/9 58/91/65 51/90/64 1/21/6
f 50/8/60 61/7/66 65/97/69 55/87/61
f 55/87/61 65/97/69 70/106/77 59/88/62
f 59/88/62 70/106/77 63/105/76 51/90/64
f 25/17/30 74/20/84 80/116/82 28/55/31
f 28/58/31 80/112/82 76/109/79 32/59/34
f 32/59/34 76/109/79 73/2/78 26/1/36
f 39/14/52 86/13/96 92/128/94 46/76/53
f 46/79/53 92/124/94 88/121/91 41/70/45
f 41/70/45 88/121/91 85/19/90 37/18/42
f 13/38/18 63/105/76 71/102/74 16/39/19
f 16/39/19 71/102/74 67/101/73 20/42/22
f 20/46/22 67/100/73 62/16/72 14/15/24
f 61/7/66 87/6/100 95/129/98 64/95/67
f 64/95/67 95/129/98 91/126/97 68/98/70
f 68/98/70 91/126/97 86/13/96 62/16/72
f 74/20/84 85/19/90 89/123/93 79/114/85
f 79/114/85 89/123/93 94/131/101 83/117/86
f 83/117/86 94/131/101 87/6/100 75/5/88
f 49/3/54 73/2/78 77/111/81 52/82/55
f 52/82/55 77/111/81 82/119/89 56/85/58
f 56/85/58 82/119/89 75/5/88 50/8/60
f 51/90/102 63/105/102 13/38/102 1/21/102
