# Blender 4.4.0
# www.blender.org
o Cylinder.001
v -1.256637 0.675521 -0.450000
v -1.213337 0.750519 -0.450000
v -1.206642 0.696655 -0.500000
v -1.252077 0.704539 -0.450000
v -1.248733 0.677632 -0.474970
v -1.244349 0.705504 -0.473910
v -1.211213 0.742618 -0.474970
v -1.236187 0.732061 -0.450000
v -1.233159 0.724886 -0.473910
v -1.230382 0.685396 -0.493320
v -1.208762 0.722843 -0.493320
v -1.231427 0.710965 -0.486830
v -1.213337 0.750519 0.450000
v -1.256637 0.675521 0.450000
v -1.206642 0.696655 0.500000
v -1.236187 0.732061 0.450000
v -1.211213 0.742618 0.474970
v -1.233159 0.724886 0.473910
v -1.248733 0.677632 0.474970
v -1.252077 0.704539 0.450000
v -1.244349 0.705504 0.473910
v -1.208762 0.722843 0.493320
v -1.230382 0.685396 0.493320
v -1.231427 0.710965 0.486830
v 0.000003 1.393306 -0.500000
v -0.043299 1.426043 -0.450000
v 0.043302 1.426042 -0.450000
v -0.021618 1.408237 -0.493320
v 0.021625 1.408235 -0.493320
v -0.000003 1.421935 -0.486830
v -0.015888 1.436602 -0.450000
v -0.037518 1.420257 -0.474970
v -0.011193 1.430393 -0.473910
v 0.037517 1.420260 -0.474970
v 0.015899 1.436598 -0.450000
v 0.011185 1.430394 -0.473910
v -0.043299 1.426043 0.450000
v 0.000003 1.393306 0.500000
v 0.043302 1.426042 0.450000
v -0.037518 1.420257 0.474970
v -0.015888 1.436602 0.450000
v -0.011193 1.430393 0.473910
v 0.021625 1.408235 0.493320
v -0.021618 1.408237 0.493320
v -0.000003 1.421935 0.486830
v 0.015899 1.436598 0.450000
v 0.037517 1.420260 0.474970
v 0.011185 1.430394 0.473910
v 1.213337 0.750522 -0.450000
v 1.256639 0.675523 -0.450000
v 1.206637 0.696656 -0.500000
v 1.236181 0.732068 -0.450000
v 1.211223 0.742620 -0.474970
v 1.233165 0.724884 -0.473910
v 1.248738 0.677637 -0.474970
v 1.252078 0.704542 -0.450000
v 1.244353 0.705503 -0.473910
v 1.208755 0.722845 -0.493320
v 1.230378 0.685397 -0.493320
v 1.231433 0.710965 -0.486830
v 1.213337 0.750522 0.450000
v 1.206637 0.696656 0.500000
v 1.256639 0.675523 0.450000
v 1.211223 0.742620 0.474970
v 1.236181 0.732068 0.450000
v 1.233165 0.724884 0.473910
v 1.230378 0.685397 0.493320
v 1.208755 0.722845 0.493320
v 1.231433 0.710965 0.486830
v 1.252078 0.704542 0.450000
v 1.248738 0.677637 0.474970
v 1.244353 0.705503 0.473910
v 1.256637 -0.675521 -0.450000
v 1.213337 -0.750519 -0.450000
v 1.206642 -0.696655 -0.500000
v 1.252077 -0.704539 -0.450000
v 1.248733 -0.677632 -0.474970
v 1.244349 -0.705504 -0.473910
v 1.211213 -0.742618 -0.474970
v 1.236187 -0.732061 -0.450000
v 1.233159 -0.724886 -0.473910
v 1.230382 -0.685396 -0.493320
v 1.208762 -0.722843 -0.493320
v 1.231427 -0.710965 -0.486830
v 1.256637 -0.675521 0.450000
v 1.206642 -0.696655 0.500000
v 1.213337 -0.750519 0.450000
v 1.248733 -0.677632 0.474970
v 1.252077 -0.704539 0.450000
v 1.244349 -0.705504 0.473910
v 1.208762 -0.722843 0.493320
v 1.230382 -0.685396 0.493320
v 1.231427 -0.710965 0.486830
v 1.236187 -0.732061 0.450000
v 1.211213 -0.742618 0.474970
v 1.233159 -0.724886 0.473910
v 0.043299 -1.426043 -0.450000
v -0.043302 -1.426042 -0.450000
v -0.000003 -1.393306 -0.500000
v 0.015888 -1.436602 -0.450000
v 0.037518 -1.420257 -0.474970
v 0.011193 -1.430393 -0.473910
v -0.037517 -1.420260 -0.474970
v -0.015899 -1.436598 -0.450000
v -0.011185 -1.430394 -0.473910
v 0.021618 -1.408237 -0.493320
v -0.021625 -1.408235 -0.493320
v 0.000003 -1.421935 -0.486830
v -0.043302 -1.426042 0.450000
v 0.043299 -1.426043 0.450000
v -0.000003 -1.393306 0.500000
v -0.015899 -1.436598 0.450000
v -0.037517 -1.420260 0.474970
v -0.011185 -1.430394 0.473910
v 0.037518 -1.420257 0.474970
v 0.015888 -1.436602 0.450000
v 0.011193 -1.430393 0.473910
v -0.021625 -1.408235 0.493320
v 0.021618 -1.408237 0.493320
v 0.000003 -1.421935 0.486830
v -1.206637 -0.696656 -0.500000
v -1.213337 -0.750522 -0.450000
v -1.256639 -0.675523 -0.450000
v -1.208755 -0.722845 -0.493320
v -1.230378 -0.685397 -0.493320
v -1.231433 -0.710965 -0.486830
v -1.236181 -0.732068 -0.450000
v -1.211223 -0.742620 -0.474970
v -1.233165 -0.724884 -0.473910
v -1.248738 -0.677637 -0.474970
v -1.252078 -0.704542 -0.450000
v -1.244353 -0.705503 -0.473910
v -1.213337 -0.750522 0.450000
v -1.206637 -0.696656 0.500000
v -1.256639 -0.675523 0.450000
v -1.211223 -0.742620 0.474970
v -1.236181 -0.732068 0.450000
v -1.233165 -0.724884 0.473910
v -1.230378 -0.685397 0.493320
v -1.208755 -0.722845 0.493320
v -1.231433 -0.710965 0.486830
v -1.252078 -0.704542 0.450000
v -1.248738 -0.677637 0.474970
v -1.244353 -0.705503 0.473910
vn -0.0000 -0.0000 -1.0000
vn 1.0000 -0.0000 -0.0000
vn 0.5000 -0.8660 -0.0000
vn -0.5000 -0.8660 -0.0000
vn 0.5000 0.8660 -0.0000
vn -0.5000 0.8660 -0.0000
vn -0.0000 -0.0000 1.0000
vn -0.9746 0.1012 -0.1998
vn -0.9358 0.3244 -0.1381
vn -0.8410 0.2942 -0.4540
vn -0.8592 0.0703 -0.5068
vn -0.7488 0.6482 -0.1381
vn -0.6753 0.5813 -0.4540
vn -0.5749 0.7934 -0.1998
vn -0.4905 0.7089 -0.5068
vn -0.3318 0.4090 -0.8501
vn -0.5759 0.3325 -0.7469
vn -0.2768 0.1598 -0.9475
vn -0.5201 0.0828 -0.8501
vn -0.5749 0.7934 0.1998
vn -0.7488 0.6482 0.1381
vn -0.6753 0.5813 0.4540
vn -0.4905 0.7089 0.5068
vn -0.9358 0.3244 0.1381
vn -0.8410 0.2942 0.4540
vn -0.9746 0.1012 0.1998
vn -0.8592 0.0703 0.5068
vn -0.5201 0.0828 0.8501
vn -0.5759 0.3325 0.7469
vn -0.2768 0.1598 0.9475
vn -0.3318 0.4090 0.8501
vn -0.0000 0.3196 -0.9476
vn -0.1883 0.4917 -0.8501
vn -0.0000 0.6649 -0.7469
vn 0.1883 0.4917 -0.8502
vn -0.3687 0.7792 -0.5068
vn -0.1658 0.8754 -0.4540
vn -0.3997 0.8946 -0.1997
vn -0.1869 0.9726 -0.1380
vn 0.1870 0.9726 -0.1380
vn 0.1657 0.8755 -0.4540
vn 0.3996 0.8946 -0.1997
vn 0.3687 0.7793 -0.5068
vn -0.3997 0.8946 0.1997
vn -0.3687 0.7792 0.5068
vn -0.1658 0.8754 0.4540
vn -0.1869 0.9726 0.1380
vn -0.1883 0.4917 0.8501
vn -0.0000 0.6649 0.7469
vn -0.0000 0.3196 0.9476
vn 0.1883 0.4917 0.8502
vn 0.3687 0.7793 0.5068
vn 0.1657 0.8755 0.4540
vn 0.3996 0.8946 0.1997
vn 0.1870 0.9726 0.1380
vn 0.5750 0.7934 -0.1997
vn 0.7488 0.6483 -0.1380
vn 0.6753 0.5812 -0.4540
vn 0.4905 0.7089 -0.5068
vn 0.9358 0.3245 -0.1380
vn 0.8410 0.2942 -0.4540
vn 0.9746 0.1012 -0.1997
vn 0.8592 0.0703 -0.5068
vn 0.5200 0.0828 -0.8501
vn 0.5758 0.3324 -0.7469
vn 0.2768 0.1598 -0.9476
vn 0.3317 0.4089 -0.8502
vn 0.5750 0.7934 0.1997
vn 0.4905 0.7089 0.5068
vn 0.6753 0.5812 0.4540
vn 0.7488 0.6483 0.1380
vn 0.3317 0.4089 0.8502
vn 0.5758 0.3324 0.7469
vn 0.2768 0.1598 0.9476
vn 0.5200 0.0828 0.8501
vn 0.8592 0.0703 0.5068
vn 0.8410 0.2942 0.4540
vn 0.9746 0.1012 0.1997
vn 0.9358 0.3245 0.1380
vn 0.9746 -0.1012 -0.1998
vn 0.9358 -0.3244 -0.1381
vn 0.8410 -0.2942 -0.4540
vn 0.8592 -0.0703 -0.5068
vn 0.7488 -0.6482 -0.1381
vn 0.6753 -0.5813 -0.4540
vn 0.5749 -0.7934 -0.1998
vn 0.4905 -0.7089 -0.5068
vn 0.3318 -0.4090 -0.8501
vn 0.5759 -0.3325 -0.7469
vn 0.2768 -0.1598 -0.9475
vn 0.5201 -0.0828 -0.8501
vn 0.9746 -0.1012 0.1998
vn 0.8592 -0.0703 0.5068
vn 0.8410 -0.2942 0.4540
vn 0.9358 -0.3244 0.1381
vn 0.5201 -0.0828 0.8501
vn 0.5759 -0.3325 0.7469
vn 0.2768 -0.1598 0.9475
vn 0.3318 -0.4090 0.8501
vn 0.4905 -0.7089 0.5068
vn 0.6753 -0.5813 0.4540
vn 0.5749 -0.7934 0.1998
vn 0.7488 -0.6482 0.1381
vn 0.3997 -0.8946 -0.1997
vn 0.1869 -0.9726 -0.1380
vn 0.1658 -0.8754 -0.4540
vn 0.3687 -0.7792 -0.5068
vn -0.1870 -0.9726 -0.1380
vn -0.1657 -0.8755 -0.4540
vn -0.3996 -0.8946 -0.1997
vn -0.3687 -0.7793 -0.5068
vn -0.1883 -0.4917 -0.8502
vn -0.0000 -0.6649 -0.7469
vn -0.0000 -0.3196 -0.9476
vn 0.1883 -0.4917 -0.8501
vn -0.3996 -0.8946 0.1997
vn -0.1870 -0.9726 0.1380
vn -0.1657 -0.8755 0.4540
vn -0.3687 -0.7793 0.5068
vn 0.1869 -0.9726 0.1380
vn 0.1658 -0.8754 0.4540
vn 0.3997 -0.8946 0.1997
vn 0.3687 -0.7792 0.5068
vn 0.1883 -0.4917 0.8501
vn -0.0000 -0.6649 0.7469
vn -0.0000 -0.3196 0.9476
vn -0.1883 -0.4917 0.8502
vn -0.2768 -0.1598 -0.9476
vn -0.3317 -0.4089 -0.8502
vn -0.5758 -0.3324 -0.7469
vn -0.5200 -0.0828 -0.8501
vn -0.4905 -0.7089 -0.5068
vn -0.6753 -0.5812 -0.4540
vn -0.5750 -0.7934 -0.1997
vn -0.7488 -0.6483 -0.1380
vn -0.9358 -0.3245 -0.1380
vn -0.8410 -0.2942 -0.4540
vn -0.9746 -0.1012 -0.1997
vn -0.8592 -0.0703 -0.5068
vn -0.5750 -0.7934 0.1997
vn -0.4905 -0.7089 0.5068
vn -0.6753 -0.5812 0.4540
vn -0.7488 -0.6483 0.1380
vn -0.3317 -0.4089 0.8502
vn -0.5758 -0.3324 0.7469
vn -0.2768 -0.1598 0.9476
vn -0.5200 -0.0828 0.8501
vn -0.8592 -0.0703 0.5068
vn -0.8410 -0.2942 0.4540
vn -0.9746 -0.1012 0.1997
vn -0.9358 -0.3245 0.1380
vn -1.0000 -0.0000 -0.0000
vt 0.750000 0.480451
vt 0.949576 0.365225
vt 0.949576 0.134775
vt 0.750000 0.019549
vt 0.550424 0.134775
vt 0.550424 0.365225
vt 0.660924 0.525000
vt 0.660924 0.975000
vt 0.505743 0.975000
vt 0.505743 0.525000
vt 0.494257 0.525000
vt 0.494257 0.975000
vt 0.339076 0.975000
vt 0.339076 0.525000
vt 0.327590 0.525000
vt 0.327590 0.975000
vt 0.172410 0.975000
vt 0.172410 0.525000
vt 0.827590 0.525000
vt 0.827590 0.975000
vt 0.672410 0.975000
vt 0.672410 0.525000
vt 0.994257 0.525000
vt 0.994257 0.975000
vt 0.839076 0.975000
vt 0.839076 0.525000
vt 0.449576 0.365225
vt 0.250000 0.480451
vt 0.050424 0.365225
vt 0.050424 0.134775
vt 0.250000 0.019549
vt 0.449576 0.134775
vt 0.005743 0.525000
vt 0.002410 0.525000
vt 0.002299 0.513045
vt 0.005500 0.500000
vt 0.000000 0.525000
vt 0.000000 0.513045
vt 0.994500 0.500000
vt 1.000000 0.513045
vt 1.000000 0.525000
vt 0.756859 0.486040
vt 0.753576 0.482920
vt 0.750000 0.485186
vt 0.750000 0.490000
vt 0.746424 0.482920
vt 0.743141 0.486040
vt 0.748149 0.486585
vt 0.001672 0.506584
vt 1.000000 0.975000
vt 1.000000 0.986955
vt 0.994500 1.000000
vt 0.000000 0.975000
vt 0.002410 0.975000
vt 0.002299 0.986955
vt 0.000000 0.986955
vt 0.005743 0.975000
vt 0.005500 1.000000
vt 0.243141 0.486040
vt 0.246424 0.482920
vt 0.250000 0.485186
vt 0.248149 0.486585
vt 0.253576 0.482920
vt 0.256859 0.486040
vt 0.250000 0.490000
vt 0.001672 0.993416
vt 0.949927 0.369557
vt 0.953677 0.367593
vt 0.953503 0.363363
vt 0.950987 0.373960
vt 0.954979 0.371655
vt 0.835743 0.525000
vt 0.835632 0.500000
vt 0.838833 0.500000
vt 0.830923 0.525000
vt 0.831034 0.500000
vt 0.827833 0.500000
vt 0.957846 0.362080
vt 0.957846 0.366690
vt 0.838833 1.000000
vt 0.835632 1.000000
vt 0.835743 0.975000
vt 0.450987 0.373960
vt 0.449927 0.369557
vt 0.453677 0.367593
vt 0.454979 0.371655
vt 0.453503 0.363363
vt 0.457846 0.362080
vt 0.457846 0.366690
vt 0.830923 0.975000
vt 0.831034 1.000000
vt 0.827833 1.000000
vt 0.669077 0.525000
vt 0.668966 0.513045
vt 0.672167 0.500000
vt 0.664257 0.525000
vt 0.664368 0.513045
vt 0.661167 0.500000
vt 0.950987 0.126040
vt 0.949927 0.130443
vt 0.953677 0.132407
vt 0.953963 0.130105
vt 0.953503 0.136637
vt 0.957846 0.137920
vt 0.955814 0.133310
vt 0.666740 0.513045
vt 0.668339 0.506584
vt 0.672167 1.000000
vt 0.668966 1.000000
vt 0.669077 0.975000
vt 0.457846 0.137920
vt 0.453503 0.136637
vt 0.453677 0.132407
vt 0.457846 0.133310
vt 0.449927 0.130443
vt 0.450987 0.126040
vt 0.454979 0.128345
vt 0.664257 0.975000
vt 0.664368 1.000000
vt 0.661167 1.000000
vt 0.502410 0.525000
vt 0.502299 0.513045
vt 0.505500 0.500000
vt 0.497590 0.525000
vt 0.497701 0.513045
vt 0.494500 0.500000
vt 0.743141 0.013960
vt 0.746424 0.017080
vt 0.750000 0.014814
vt 0.748149 0.013415
vt 0.753576 0.017080
vt 0.756859 0.013960
vt 0.751851 0.013415
vt 0.499927 0.513045
vt 0.498328 0.506584
vt 0.505500 1.000000
vt 0.502299 1.000000
vt 0.502410 0.975000
vt 0.256859 0.013960
vt 0.253576 0.017080
vt 0.250000 0.014814
vt 0.252867 0.011655
vt 0.246424 0.017080
vt 0.243141 0.013960
vt 0.247133 0.011655
vt 0.497590 0.975000
vt 0.497701 1.000000
vt 0.494500 1.000000
vt 0.335743 0.525000
vt 0.335632 0.513045
vt 0.338833 0.500000
vt 0.330923 0.525000
vt 0.331034 0.513045
vt 0.327833 0.500000
vt 0.542154 0.137920
vt 0.546497 0.136637
vt 0.546323 0.132407
vt 0.544186 0.133310
vt 0.550073 0.130443
vt 0.549013 0.126040
vt 0.546037 0.130105
vt 0.333260 0.513045
vt 0.331661 0.506584
vt 0.330923 0.975000
vt 0.331034 0.986955
vt 0.327833 1.000000
vt 0.335743 0.975000
vt 0.335632 0.986955
vt 0.338833 1.000000
vt 0.049013 0.126040
vt 0.050073 0.130443
vt 0.046323 0.132407
vt 0.046037 0.130105
vt 0.046497 0.136637
vt 0.042154 0.137920
vt 0.044186 0.133310
vt 0.333260 0.986955
vt 0.331661 0.993416
vt 0.546497 0.363363
vt 0.546323 0.367593
vt 0.550073 0.369557
vt 0.542154 0.362080
vt 0.542154 0.366690
vt 0.169077 0.525000
vt 0.168966 0.500000
vt 0.172167 0.500000
vt 0.164257 0.525000
vt 0.164368 0.500000
vt 0.160924 0.525000
vt 0.161167 0.500000
vt 0.549013 0.373960
vt 0.545021 0.371655
vt 0.172167 1.000000
vt 0.168966 1.000000
vt 0.169077 0.975000
vt 0.042154 0.362080
vt 0.046497 0.363363
vt 0.046323 0.367593
vt 0.042154 0.366690
vt 0.050073 0.369557
vt 0.049013 0.373960
vt 0.045021 0.371655
vt 0.160924 0.975000
vt 0.164257 0.975000
vt 0.164368 1.000000
vt 0.161167 1.000000
s 1
f 3/1/1 25/2/1 51/3/1 75/4/1 99/5/1 121/6/1
f 50/7/2 63/8/2 85/9/2 73/10/2
f 74/11/3 87/12/3 110/13/3 97/14/3
f 98/15/4 109/16/4 133/17/4 122/18/4
f 27/19/5 39/20/5 61/21/5 49/22/5
f 2/23/6 13/24/6 37/25/6 26/26/6
f 38/27/7 15/28/7 134/29/7 111/30/7 86/31/7 62/32/7
f 1/33/8 4/34/9 6/35/10 5/36/11
f 4/34/9 8/37/12 9/38/13 6/35/10
f 2/23/14 7/39/15 9/40/13 8/41/12
f 7/42/15 11/43/16 12/44/17 9/45/13
f 3/1/18 10/46/19 12/44/17 11/43/16
f 10/46/19 5/47/11 6/48/10 12/44/17
f 6/35/10 9/38/13 12/49/17
f 13/24/20 16/50/21 18/51/22 17/52/23
f 16/53/21 20/54/24 21/55/25 18/56/22
f 14/57/26 19/58/27 21/55/25 20/54/24
f 19/59/27 23/60/28 24/61/29 21/62/25
f 15/28/30 22/63/31 24/61/29 23/60/28
f 22/63/31 17/64/23 18/65/22 24/61/29
f 18/56/22 21/55/25 24/66/29
f 25/2/32 28/67/33 30/68/34 29/69/35
f 28/67/33 32/70/36 33/71/37 30/68/34
f 26/26/38 31/72/39 33/73/37 32/74/36
f 31/72/39 35/75/40 36/76/41 33/73/37
f 27/19/42 34/77/43 36/76/41 35/75/40
f 34/78/43 29/69/35 30/68/34 36/79/41
f 30/68/34 33/71/37 36/79/41
f 37/25/44 40/80/45 42/81/46 41/82/47
f 40/83/45 44/84/48 45/85/49 42/86/46
f 38/27/50 43/87/51 45/85/49 44/84/48
f 43/87/51 47/88/52 48/89/53 45/85/49
f 39/20/54 46/90/55 48/91/53 47/92/52
f 46/90/55 41/82/47 42/81/46 48/91/53
f 42/86/46 45/85/49 48/89/53
f 49/22/56 52/93/57 54/94/58 53/95/59
f 52/93/57 56/96/60 57/97/61 54/94/58
f 50/7/62 55/98/63 57/97/61 56/96/60
f 55/99/63 59/100/64 60/101/65 57/102/61
f 51/3/66 58/103/67 60/101/65 59/100/64
f 58/103/67 53/104/59 54/105/58 60/101/65
f 54/94/58 57/106/61 60/107/65
f 61/21/68 64/108/69 66/109/70 65/110/71
f 64/111/69 68/112/72 69/113/73 66/114/70
f 62/32/74 67/115/75 69/113/73 68/112/72
f 67/115/75 71/116/76 72/117/77 69/113/73
f 63/8/78 70/118/79 72/119/77 71/120/76
f 70/118/79 65/110/71 66/109/70 72/119/77
f 66/114/70 69/113/73 72/117/77
f 73/10/80 76/121/81 78/122/82 77/123/83
f 76/121/81 80/124/84 81/125/85 78/122/82
f 74/11/86 79/126/87 81/125/85 80/124/84
f 79/127/87 83/128/88 84/129/89 81/130/85
f 75/4/90 82/131/91 84/129/89 83/128/88
f 82/131/91 77/132/83 78/133/82 84/129/89
f 78/134/82 81/125/85 84/135/89
f 85/9/92 88/136/93 90/137/94 89/138/95
f 88/139/93 92/140/96 93/141/97 90/142/94
f 86/31/98 91/143/99 93/141/97 92/140/96
f 91/143/99 95/144/100 96/145/101 93/141/97
f 87/12/102 94/146/103 96/147/101 95/148/100
f 94/146/103 89/138/95 90/137/94 96/147/101
f 90/142/94 93/141/97 96/145/101
f 97/14/104 100/149/105 102/150/106 101/151/107
f 100/149/105 104/152/108 105/153/109 102/150/106
f 98/15/110 103/154/111 105/153/109 104/152/108
f 103/155/111 107/156/112 108/157/113 105/158/109
f 99/5/114 106/159/115 108/157/113 107/156/112
f 106/159/115 101/160/107 102/161/106 108/157/113
f 102/162/106 105/153/109 108/163/113
f 109/16/116 112/164/117 114/165/118 113/166/119
f 112/164/117 116/167/120 117/168/121 114/165/118
f 110/13/122 115/169/123 117/168/121 116/167/120
f 115/170/123 119/171/124 120/172/125 117/173/121
f 111/30/126 118/174/127 120/172/125 119/171/124
f 118/174/127 113/175/119 114/176/118 120/172/125
f 114/165/118 117/177/121 120/178/125
f 121/6/128 124/179/129 126/180/130 125/181/131
f 124/179/129 128/182/132 129/183/133 126/180/130
f 122/18/134 127/184/135 129/185/133 128/186/132
f 127/184/135 131/187/136 132/188/137 129/185/133
f 123/189/138 130/190/139 132/188/137 131/187/136
f 130/191/139 125/181/131 126/180/130 132/192/137
f 126/180/130 129/183/133 132/192/137
f 133/17/140 136/193/141 138/194/142 137/195/143
f 136/196/141 140/197/144 141/198/145 138/199/142
f 134/29/146 139/200/147 141/198/145 140/197/144
f 139/200/147 143/201/148 144/202/149 141/198/145
f 135/203/150 142/204/151 144/205/149 143/206/148
f 142/204/151 137/195/143 138/194/142 144/205/149
f 138/199/142 141/198/145 144/202/149
f 111/30/126 134/29/146 140/197/144 118/174/127
f 118/174/127 140/197/144 136/196/141 113/175/119
f 113/166/119 136/193/141 133/17/140 109/16/116
f 1/33/8 14/57/26 20/54/24 4/34/9
f 4/34/9 20/54/24 16/53/21 8/37/12
f 8/41/12 16/50/21 13/24/20 2/23/14
f 2/23/14 26/26/38 32/74/36 7/39/15
f 7/42/15 32/70/36 28/67/33 11/43/16
f 11/43/16 28/67/33 25/2/32 3/1/18
f 26/26/38 37/25/44 41/82/47 31/72/39
f 31/72/39 41/82/47 46/90/55 35/75/40
f 35/75/40 46/90/55 39/20/54 27/19/42
f 27/19/42 49/22/56 53/95/59 34/77/43
f 34/78/43 53/104/59 58/103/67 29/69/35
f 29/69/35 58/103/67 51/3/66 25/2/32
f 38/27/50 62/32/74 68/112/72 43/87/51
f 43/87/51 68/112/72 64/111/69 47/88/52
f 47/92/52 64/108/69 61/21/68 39/20/54
f 50/7/62 73/10/80 77/123/83 55/98/63
f 55/99/63 77/132/83 82/131/91 59/100/64
f 59/100/64 82/131/91 75/4/90 51/3/66
f 62/32/74 86/31/98 92/140/96 67/115/75
f 67/115/75 92/140/96 88/139/93 71/116/76
f 71/120/76 88/136/93 85/9/92 63/8/78
f 74/11/86 97/14/104 101/151/107 79/126/87
f 79/127/87 101/160/107 106/159/115 83/128/88
f 83/128/88 106/159/115 99/5/114 75/4/90
f 86/31/98 111/30/126 119/171/124 91/143/99
f 91/143/99 119/171/124 115/170/123 95/144/100
f 95/148/100 115/169/123 110/13/122 87/12/102
f 98/15/110 122/18/134 128/186/132 103/154/111
f 103/155/111 128/182/132 124/179/129 107/156/112
f 107/156/112 124/179/129 121/6/128 99/5/114
f 14/57/26 135/203/150 143/206/148 19/58/27
f 19/59/27 143/201/148 139/200/147 23/60/28
f 23/60/28 139/200/147 134/29/146 15/28/30
f 73/10/80 85/9/92 89/138/95 76/121/81
f 76/121/81 89/138/95 94/146/103 80/124/84
f 80/124/84 94/146/103 87/12/102 74/11/86
f 15/28/30 38/27/50 44/84/48 22/63/31
f 22/63/31 44/84/48 40/83/45 17/64/23
f 17/52/23 40/80/45 37/25/44 13/24/20
f 122/18/134 133/17/140 137/195/143 127/184/135
f 127/184/135 137/195/143 142/204/151 131/187/136
f 131/187/136 142/204/151 135/203/150 123/189/138
f 97/14/104 110/13/122 116/167/120 100/149/105
f 100/149/105 116/167/120 112/164/117 104/152/108
f 104/152/108 112/164/117 109/16/116 98/15/110
f 3/1/18 121/6/128 125/181/131 10/46/19
f 10/46/19 125/181/131 130/191/139 5/47/11
f 5/36/11 130/190/139 123/189/138 1/33/8
f 49/22/56 61/21/68 65/110/71 52/93/57
f 52/93/57 65/110/71 70/118/79 56/96/60
f 56/96/60 70/118/79 63/8/78 50/7/62
f 123/189/152 135/203/152 14/57/152 1/33/152
