# Blender 3.5.1
# www.blender.org
o Cylinder
v 0.000000 2.513274 -0.500000
v 0.000000 2.513274 0.500000
v 0.246344 2.501172 -0.500000
v 0.246344 2.501172 0.500000
v 0.490315 2.464982 -0.500000
v 0.490315 2.464982 0.500000
v 0.729565 2.405053 -0.500000
v 0.729565 2.405053 0.500000
v 0.961788 2.321963 -0.500000
v 0.961788 2.321963 0.500000
v 1.184749 2.216510 -0.500000
v 1.184749 2.216510 0.500000
v 1.396300 2.089711 -0.500000
v 1.396300 2.089711 0.500000
v 1.594404 1.942787 -0.500000
v 1.594404 1.942787 0.500000
v 1.777153 1.777153 -0.500000
v 1.777153 1.777153 0.500000
v 1.942787 1.594404 -0.500000
v 1.942787 1.594404 0.500000
v 2.089711 1.396300 -0.500000
v 2.089711 1.396300 0.500000
v 2.216510 1.184749 -0.500000
v 2.216510 1.184749 0.500000
v 2.321963 0.961788 -0.500000
v 2.321963 0.961788 0.500000
v 2.405053 0.729565 -0.500000
v 2.405053 0.729565 0.500000
v 2.464982 0.490315 -0.500000
v 2.464982 0.490315 0.500000
v 2.501172 0.246344 -0.500000
v 2.501172 0.246344 0.500000
v 2.513274 0.000000 -0.500000
v 2.513274 0.000000 0.500000
v -2.513274 0.000000 -0.500000
v -2.513274 0.000000 0.500000
v -2.501172 0.246344 -0.500000
v -2.501172 0.246344 0.500000
v -2.464982 0.490315 -0.500000
v -2.464982 0.490315 0.500000
v -2.405053 0.729565 -0.500000
v -2.405053 0.729565 0.500000
v -2.321963 0.961788 -0.500000
v -2.321963 0.961788 0.500000
v -2.216510 1.184749 -0.500000
v -2.216510 1.184749 0.500000
v -2.089711 1.396300 -0.500000
v -2.089711 1.396300 0.500000
v -1.942787 1.594404 -0.500000
v -1.942787 1.594404 0.500000
v -1.777153 1.777153 -0.500000
v -1.777153 1.777153 0.500000
v -1.594404 1.942787 -0.500000
v -1.594404 1.942787 0.500000
v -1.396300 2.089711 -0.500000
v -1.396300 2.089711 0.500000
v -1.184749 2.216510 -0.500000
v -1.184749 2.216510 0.500000
v -0.961788 2.321963 -0.500000
v -0.961788 2.321963 0.500000
v -0.729565 2.405053 -0.500000
v -0.729565 2.405053 0.500000
v -0.490315 2.464982 -0.500000
v -0.490315 2.464982 0.500000
v -0.246344 2.501172 -0.500000
v -0.246344 2.501172 0.500000
vn 0.0491 0.9988 -0.0000
vn 0.1467 0.9892 -0.0000
vn 0.2430 0.9700 -0.0000
vn 0.3369 0.9415 -0.0000
vn 0.4276 0.9040 -0.0000
vn 0.5141 0.8577 -0.0000
vn 0.5957 0.8032 -0.0000
vn 0.6716 0.7410 -0.0000
vn 0.7410 0.6716 -0.0000
vn 0.8032 0.5957 -0.0000
vn 0.8577 0.5141 -0.0000
vn 0.9040 0.4276 -0.0000
vn 0.9415 0.3369 -0.0000
vn 0.9700 0.2430 -0.0000
vn 0.9892 0.1467 -0.0000
vn 0.9988 0.0491 -0.0000
vn -0.0000 -0.0000 -1.0000
vn -0.0000 -0.0000 1.0000
vn -0.0000 -1.0000 -0.0000
vn -0.9988 0.0491 -0.0000
vn -0.9892 0.1467 -0.0000
vn -0.9700 0.2430 -0.0000
vn -0.9415 0.3369 -0.0000
vn -0.9040 0.4276 -0.0000
vn -0.8577 0.5141 -0.0000
vn -0.8032 0.5957 -0.0000
vn -0.7410 0.6716 -0.0000
vn -0.6716 0.7410 -0.0000
vn -0.5957 0.8032 -0.0000
vn -0.5141 0.8577 -0.0000
vn -0.4276 0.9040 -0.0000
vn -0.3369 0.9415 -0.0000
vn -0.2430 0.9700 -0.0000
vn -0.1467 0.9892 -0.0000
vn -0.0491 0.9988 -0.0000
vt 1.000000 0.500000
vt 0.000000 0.500000
vt 1.000000 1.000000
vt 0.000000 1.000000
vt 0.984375 0.500000
vt 0.984375 1.000000
vt 0.968750 0.500000
vt 0.968750 1.000000
vt 0.953125 0.500000
vt 0.953125 1.000000
vt 0.937500 0.500000
vt 0.937500 1.000000
vt 0.921875 0.500000
vt 0.921875 1.000000
vt 0.906250 0.500000
vt 0.906250 1.000000
vt 0.890625 0.500000
vt 0.890625 1.000000
vt 0.875000 0.500000
vt 0.875000 1.000000
vt 0.859375 0.500000
vt 0.859375 1.000000
vt 0.843750 0.500000
vt 0.843750 1.000000
vt 0.828125 0.500000
vt 0.828125 1.000000
vt 0.812500 0.500000
vt 0.812500 1.000000
vt 0.796875 0.500000
vt 0.796875 1.000000
vt 0.781250 0.500000
vt 0.781250 1.000000
vt 0.765625 0.500000
vt 0.765625 1.000000
vt 0.750000 0.500000
vt 0.750000 1.000000
vt 0.250000 0.500000
vt 0.250000 1.000000
vt 0.234375 0.500000
vt 0.234375 1.000000
vt 0.218750 0.500000
vt 0.218750 1.000000
vt 0.203125 0.500000
vt 0.203125 1.000000
vt 0.187500 0.500000
vt 0.187500 1.000000
vt 0.171875 0.500000
vt 0.171875 1.000000
vt 0.156250 0.500000
vt 0.156250 1.000000
vt 0.140625 0.500000
vt 0.140625 1.000000
vt 0.125000 0.500000
vt 0.125000 1.000000
vt 0.109375 0.500000
vt 0.109375 1.000000
vt 0.093750 0.500000
vt 0.093750 1.000000
vt 0.078125 0.500000
vt 0.078125 1.000000
vt 0.062500 0.500000
vt 0.062500 1.000000
vt 0.046875 0.500000
vt 0.046875 1.000000
vt 0.031250 0.500000
vt 0.031250 1.000000
vt 0.015625 0.500000
vt 0.015625 1.000000
s 0
f 1/1/1 2/3/1 4/6/1 3/5/1
f 3/5/2 4/6/2 6/8/2 5/7/2
f 5/7/3 6/8/3 8/10/3 7/9/3
f 7/9/4 8/10/4 10/12/4 9/11/4
f 9/11/5 10/12/5 12/14/5 11/13/5
f 11/13/6 12/14/6 14/16/6 13/15/6
f 13/15/7 14/16/7 16/18/7 15/17/7
f 15/17/8 16/18/8 18/20/8 17/19/8
f 17/19/9 18/20/9 20/22/9 19/21/9
f 19/21/10 20/22/10 22/24/10 21/23/10
f 21/23/11 22/24/11 24/26/11 23/25/11
f 23/25/12 24/26/12 26/28/12 25/27/12
f 25/27/13 26/28/13 28/30/13 27/29/13
f 27/29/14 28/30/14 30/32/14 29/31/14
f 29/31/15 30/32/15 32/34/15 31/33/15
f 31/33/16 32/34/16 34/36/16 33/35/16
f 1/2/17 3/5/17 5/7/17 7/9/17 9/11/17 11/13/17 13/15/17 15/17/17 17/19/17 19/21/17 21/23/17 23/25/17 25/27/17 27/29/17 29/31/17 31/33/17 33/35/17 35/37/17 37/39/17 39/41/17 41/43/17 43/45/17 45/47/17 47/49/17 49/51/17 51/53/17 53/55/17 55/57/17 57/59/17 59/61/17 61/63/17 63/65/17 65/67/17
f 4/6/18 2/4/18 66/68/18 64/66/18 62/64/18 60/62/18 58/60/18 56/58/18 54/56/18 52/54/18 50/52/18 48/50/18 46/48/18 44/46/18 42/44/18 40/42/18 38/40/18 36/38/18 34/36/18 32/34/18 30/32/18 28/30/18 26/28/18 24/26/18 22/24/18 20/22/18 18/20/18 16/18/18 14/16/18 12/14/18 10/12/18 8/10/18 6/8/18
f 33/35/19 34/36/19 36/38/19 35/37/19
f 35/37/20 36/38/20 38/40/20 37/39/20
f 37/39/21 38/40/21 40/42/21 39/41/21
f 39/41/22 40/42/22 42/44/22 41/43/22
f 41/43/23 42/44/23 44/46/23 43/45/23
f 43/45/24 44/46/24 46/48/24 45/47/24
f 45/47/25 46/48/25 48/50/25 47/49/25
f 47/49/26 48/50/26 50/52/26 49/51/26
f 49/51/27 50/52/27 52/54/27 51/53/27
f 51/53/28 52/54/28 54/56/28 53/55/28
f 53/55/29 54/56/29 56/58/29 55/57/29
f 55/57/30 56/58/30 58/60/30 57/59/30
f 57/59/31 58/60/31 60/62/31 59/61/31
f 59/61/32 60/62/32 62/64/32 61/63/32
f 61/63/33 62/64/33 64/66/33 63/65/33
f 63/65/34 64/66/34 66/68/34 65/67/34
f 65/67/35 66/68/35 2/4/35 1/2/35
o Cylinder.001
v -0.000000 -2.176560 -0.500000
v -0.000000 -2.176560 0.500000
v -1.256637 0.000001 -0.500000
v -1.256637 0.000001 0.500000
v 1.256636 -0.000000 -0.500000
v 1.256636 -0.000000 0.500000
vn -0.8660 -0.5000 -0.0000
vn -0.0000 1.0000 -0.0000
vn -0.0000 -0.0000 1.0000
vn 0.8660 -0.5000 -0.0000
vn -0.0000 -0.0000 -1.0000
vt 1.000000 0.500000
vt -0.000000 0.500000
vt 0.750000 0.490000
vt 1.000000 1.000000
vt 0.250000 0.490000
vt -0.000000 1.000000
vt 0.666667 0.500000
vt 0.957846 0.130000
vt 0.666667 1.000000
vt 0.457846 0.130000
vt 0.333333 0.500000
vt 0.542154 0.130000
vt 0.042154 0.130000
vt 0.333333 1.000000
s 0
f 67/69/36 68/72/36 70/77/36 69/75/36
f 69/75/37 70/77/37 72/82/37 71/79/37
f 70/78/38 68/73/38 72/81/38
f 71/79/39 72/82/39 68/74/39 67/70/39
f 67/71/40 69/76/40 71/80/40
